<svg width="28" height="25" fill="none" xmlns="http://www.w3.org/2000/svg"><path fill-rule="evenodd" clip-rule="evenodd" d="M17.108 16.24a.304.304 0 00-.31.298v2.35c0 .164.14.297.31.297h.553c.171 0 .31-.133.31-.298v-2.349a.304.304 0 00-.31-.298h-.553zm-3.261 0a.304.304 0 00-.31.298v2.35c0 .164.139.297.31.297h.553c.17 0 .31-.133.31-.298v-2.349a.304.304 0 00-.31-.298h-.553zm-3.26 0a.305.305 0 00-.31.298v2.35c0 .164.14.297.31.297h.553c.17 0 .31-.133.31-.298v-2.349a.304.304 0 00-.31-.298h-.553zm6.521-4.183a.304.304 0 00-.31.298v2.349c0 .164.14.298.31.298h.553c.171 0 .31-.134.31-.298v-2.35a.304.304 0 00-.31-.297h-.553zm-3.261 0a.304.304 0 00-.31.298v2.349c0 .164.139.298.31.298h.553c.17 0 .31-.134.31-.298v-2.35a.304.304 0 00-.31-.297h-.553zm-3.26 0a.304.304 0 00-.31.298v2.349c0 .164.14.298.31.298h.553c.17 0 .31-.134.31-.298v-2.35a.304.304 0 00-.31-.297h-.553zm6.521-4.184a.304.304 0 00-.31.298v2.349c0 .165.14.298.31.298h.553c.171 0 .31-.133.31-.298V8.171a.304.304 0 00-.31-.298h-.553zm-3.261 0a.304.304 0 00-.31.298v2.349c0 .165.139.298.31.298h.553c.17 0 .31-.133.31-.298V8.171a.304.304 0 00-.31-.298h-.553zm-3.26 0a.304.304 0 00-.31.298v2.349c0 .165.14.298.31.298h.553c.17 0 .31-.133.31-.298V8.171a.304.304 0 00-.31-.298h-.553zm6.52-4.185a.304.304 0 00-.31.299v2.348c0 .165.139.299.31.299h.552c.171 0 .31-.134.31-.299V3.987a.305.305 0 00-.31-.299h-.552zm-3.26 0a.304.304 0 00-.31.299v2.348c0 .165.139.299.31.299h.553c.17 0 .31-.134.31-.299V3.987a.304.304 0 00-.31-.299h-.553zm-3.26 0a.305.305 0 00-.31.299v2.348c0 .165.14.299.31.299h.553c.17 0 .31-.134.31-.299V3.987a.304.304 0 00-.31-.299h-.553z" fill="#232A34"/><path fill-rule="evenodd" clip-rule="evenodd" d="M8.588.44a.304.304 0 00-.312.295v1.85H6.004a.321.321 0 00-.22.087.289.289 0 00-.091.21l.015 18.985h-2.17v-2.122h0a.284.284 0 00-.003-.043c.498-.131.866-.57.866-1.084 0-.614-.526-1.127-1.176-1.127-.647 0-1.171.512-1.171 1.127 0 .514.366.952.863 1.084a.29.29 0 00-.003.043v2.122H1.667c-.333 0-.582.223-.73.482-.15.258-.228.58-.228.931 0 .352.079.674.227.932.15.258.398.482.731.482h24.917c.332 0 .58-.224.729-.481.149-.258.228-.58.228-.933 0-.352-.08-.674-.228-.932-.15-.258-.397-.481-.73-.481h-1.25v-2.122c0-.014 0-.029-.002-.043.497-.132.863-.57.863-1.084 0-.614-.525-1.127-1.172-1.127-.648 0-1.175.511-1.175 1.127 0 .515.368.953.866 1.084h0a.297.297 0 00-.003.043v2.122h-2.17V2.88a.304.304 0 00-.312-.296h-2.256V.735h0A.304.304 0 0019.66.44H8.588zm.312.591h10.448v20.836H8.9V1.03zM6.317 3.177h1.959v18.69H6.332l-.015-18.69h0zm13.655 0h1.943v18.69h-1.943V3.177zM3.226 18.083c.306 0 .55.236.55.535 0 .3-.242.532-.55.532a.535.535 0 01-.548-.532c0-.3.245-.535.548-.535zm21.796 0a.54.54 0 01.548.535c0 .3-.245.532-.549.532a.539.539 0 01-.55-.532c0-.298.248-.535.55-.535zM1.666 22.46h24.916c.022 0 .097.027.182.174.085.147.152.384.152.647 0 .264-.066.5-.152.647-.085.148-.16.175-.182.175H1.667c-.025 0-.099-.027-.183-.174a1.357 1.357 0 01-.151-.648c0-.264.066-.5.15-.648.085-.146.16-.174.184-.174v0z" fill="#232A34" stroke="#232A34" stroke-width=".2"/></svg>