<svg width="27" height="27" fill="none" xmlns="http://www.w3.org/2000/svg"><g clip-path="url(#clip0_547_11604)" fill-rule="evenodd" clip-rule="evenodd" fill="#232A34" stroke="#232A34" stroke-width=".3"><path d="M13.132 4.87c-3.056 0-5.534 2.531-5.534 5.642 0 3.11 2.478 5.642 5.534 5.642 3.045 0 5.523-2.532 5.523-5.642 0-3.11-2.478-5.642-5.523-5.642zm0 .65c2.7 0 4.887 2.233 4.887 4.992s-2.186 4.992-4.887 4.992c-2.713 0-4.898-2.233-4.898-4.992s2.185-4.992 4.898-4.992z"/><path d="M13.135.97c-5.206 0-9.44 4.267-9.44 9.52 0 2.676 1.622 5.805 3.567 8.658 1.742 2.555 3.754 4.866 5.167 6.365H4.888h0a.314.314 0 00-.227.093.329.329 0 000 .462c.06.061.142.095.227.094h16.484a.314.314 0 00.227-.094.328.328 0 000-.462.313.313 0 00-.227-.093H13.84c1.724-1.813 3.771-4.165 5.455-6.679 1.843-2.75 3.26-5.686 3.26-8.343 0-5.254-4.225-9.521-9.42-9.521h0zm0 .65c4.854 0 8.783 3.973 8.783 8.87 0 2.418-1.342 5.27-3.15 7.968-1.734 2.589-3.877 5.034-5.634 6.862-1.398-1.46-3.528-3.882-5.345-6.547-1.914-2.806-3.458-5.882-3.458-8.283 0-4.897 3.937-8.87 8.803-8.87h0z"/></g><defs><clipPath id="clip0_547_11604"><path fill="#fff" transform="translate(.125 .566)" d="M0 0h26v26H0z"/></clipPath></defs></svg>