<svg width="33" height="33" fill="none" xmlns="http://www.w3.org/2000/svg"><g clip-path="url(#clip0_547_11612)" fill="#232A34"><path d="M4.004 31.41a.545.545 0 001.09 0v-3.745h24.581v3.746a.545.545 0 001.09 0v-4.313c0-.3-.26-.522-.56-.522H10.61V14.115h8.688a.556.556 0 00.545-.558c0-5.04-3.844-9.205-8.754-9.706a8.586 8.586 0 00-1.993-.004c-4.91.5-8.754 4.67-8.754 9.711a.555.555 0 00.545.557H9.52v12.46h-4.7c-1.492-2.246-3.532-5.22-3.65-5.41a.544.544 0 00-.937.553c.128.212 2.885 4.278 3.77 5.583l.001 4.11zm6.605-26.508c.204.009.312.022.46.039 1.511.208 2.454.953 2.98 2.313.574 1.482.626 3.592.63 5.77h-4.07V4.903zm8.127 8.123h-2.969c-.003-2.247-.05-4.502-.695-6.165a5.899 5.899 0 00-.244-.552c.5.333.965.716 1.388 1.144a8.593 8.593 0 012.52 5.573zM3.969 7.448a8.85 8.85 0 011.387-1.14c-.09.18-.172.366-.243.555-.644 1.663-.692 3.915-.696 6.162H1.45a8.603 8.603 0 012.52-5.577zm1.538 5.577c.003-2.18.047-4.29.621-5.771.527-1.36 1.447-2.099 2.959-2.307.148-.017.296-.036.432-.046v8.124H5.507zm20.733-2.418a3.565 3.565 0 100-7.13 3.565 3.565 0 000 7.13zm0-6.041a2.476 2.476 0 110 4.951 2.476 2.476 0 010-4.951zm3.078-.059a.543.543 0 00.386-.16l.68-.679a.545.545 0 00-.772-.77l-.68.68a.545.545 0 00.386.93zm-6.542 5.228l-.68.68v-.001a.545.545 0 00.771.77l.68-.679a.545.545 0 00-.77-.77zm3.427-6.457a.545.545 0 00.545-.545V1.721a.545.545 0 00-1.09 0v1.012a.545.545 0 00.545.545zm-.547 8.129v1.012a.545.545 0 001.09 0v-1.012a.545.545 0 10-1.09 0z"/><path d="M22.774 4.347a.545.545 0 00.77-.77l-.679-.68a.545.545 0 00-.77.771l.68.68zm6.159 5.388a.544.544 0 000 .77l.68.68a.545.545 0 00.77-.77l-.68-.68a.544.544 0 00-.77 0zm-7.941-2.089h.867a.545.545 0 000-1.09h-.867a.545.545 0 000 1.09zm10.553-1.089h-1.012a.545.545 0 000 1.09h1.012a.545.545 0 100-1.09z"/></g><defs><clipPath id="clip0_547_11612"><path fill="#fff" transform="translate(.125 .566)" d="M0 0h32v32H0z"/></clipPath></defs></svg>