<svg width="41" height="37" fill="none" xmlns="http://www.w3.org/2000/svg"><g clip-path="url(#clip0_547_11628)" filter="url(#filter0_d_547_11628)" fill="#232A34"><path d="M35.698 23.302h-1.952c-.042-6.45-5.261-11.754-12.008-12.517 1.06-.595 1.782-1.698 1.782-2.97a3.404 3.404 0 00-3.394-3.395 3.404 3.404 0 00-3.395 3.394c0 1.273.721 2.42 1.782 2.97-6.746.764-11.965 6.068-12.008 12.518H4.553c-.254 0-.424.17-.424.424 0 .255.17.425.424.425h31.145c.254 0 .424-.17.424-.425a.425.425 0 00-.424-.424zM17.58 7.814c0-1.4 1.146-2.546 2.546-2.546s2.546 1.146 2.546 2.546-1.146 2.546-2.546 2.546a2.553 2.553 0 01-2.546-2.546zm2.546 3.734c7.044 0 12.73 5.262 12.772 11.796H7.354c.043-6.534 5.728-11.796 12.772-11.796zm15.572 16.315H4.553c-.254 0-.424.17-.424.425 0 .254.17.424.424.424h31.145c.254 0 .424-.17.424-.424a.425.425 0 00-.424-.425z"/></g><defs><clipPath id="clip0_547_11628"><path fill="#fff" transform="translate(4.125 .566)" d="M0 0h32v32H0z"/></clipPath><filter id="filter0_d_547_11628" x=".125" y=".566" width="40" height="40" filterUnits="userSpaceOnUse" color-interpolation-filters="sRGB"><feFlood flood-opacity="0" result="BackgroundImageFix"/><feColorMatrix in="SourceAlpha" values="0 0 0 0 0 0 0 0 0 0 0 0 0 0 0 0 0 0 127 0" result="hardAlpha"/><feOffset dy="4"/><feGaussianBlur stdDeviation="2"/><feComposite in2="hardAlpha" operator="out"/><feColorMatrix values="0 0 0 0 0 0 0 0 0 0 0 0 0 0 0 0 0 0 0.25 0"/><feBlend in2="BackgroundImageFix" result="effect1_dropShadow_547_11628"/><feBlend in="SourceGraphic" in2="effect1_dropShadow_547_11628" result="shape"/></filter></defs></svg>