<svg width="28" height="25" viewBox="0 0 28 25" fill="none" xmlns="http://www.w3.org/2000/svg">
<path fill-rule="evenodd" clip-rule="evenodd" d="M17.1085 16.2402C16.9375 16.2404 16.7988 16.3738 16.7988 16.5384V18.8874C16.7988 19.052 16.9375 19.1853 17.1085 19.1853H17.6611C17.8322 19.1853 17.9708 19.052 17.971 18.8874V16.5384C17.9708 16.3738 17.8322 16.2402 17.6611 16.2402H17.1085Z" fill="#232A34"/>
<path fill-rule="evenodd" clip-rule="evenodd" d="M13.8468 16.2402C13.6757 16.2404 13.5371 16.3738 13.5371 16.5384V18.8874C13.5371 19.052 13.6757 19.1853 13.8468 19.1853H14.3996C14.5707 19.1853 14.7093 19.052 14.7093 18.8874V16.5384C14.7093 16.3738 14.5707 16.2402 14.3996 16.2402H13.8468Z" fill="#232A34"/>
<path fill-rule="evenodd" clip-rule="evenodd" d="M10.5873 16.2402C10.4162 16.2404 10.2776 16.3738 10.2773 16.5384V18.8874C10.2776 19.052 10.4162 19.1853 10.5873 19.1853H11.1398C11.3109 19.1853 11.4495 19.052 11.4495 18.8874V16.5384C11.4495 16.3738 11.3109 16.2402 11.1398 16.2402H10.5873Z" fill="#232A34"/>
<path fill-rule="evenodd" clip-rule="evenodd" d="M17.1085 12.0566C16.9375 12.0566 16.7988 12.19 16.7988 12.3548V14.7037C16.7988 14.8682 16.9375 15.0018 17.1085 15.0018H17.6611C17.8322 15.0018 17.9708 14.8684 17.971 14.7037V12.3548C17.9708 12.19 17.8322 12.0566 17.6611 12.0566H17.1085Z" fill="#232A34"/>
<path fill-rule="evenodd" clip-rule="evenodd" d="M13.8468 12.0566C13.6757 12.0566 13.5371 12.19 13.5371 12.3548V14.7037C13.5371 14.8682 13.6757 15.0018 13.8468 15.0018H14.3996C14.5707 15.0018 14.7093 14.8684 14.7093 14.7037V12.3548C14.7093 12.19 14.5707 12.0566 14.3996 12.0566H13.8468Z" fill="#232A34"/>
<path fill-rule="evenodd" clip-rule="evenodd" d="M10.5873 12.0566C10.4162 12.0566 10.2776 12.19 10.2773 12.3548V14.7037C10.2776 14.8682 10.4162 15.0018 10.5873 15.0018H11.1398C11.3109 15.0018 11.4495 14.8684 11.4495 14.7037V12.3548C11.4495 12.19 11.3109 12.0566 11.1398 12.0566H10.5873Z" fill="#232A34"/>
<path fill-rule="evenodd" clip-rule="evenodd" d="M17.1085 7.87305C16.9375 7.87305 16.7988 8.00643 16.7988 8.17099V10.52C16.7988 10.6846 16.9375 10.818 17.1085 10.8182H17.6611C17.8322 10.818 17.9708 10.6846 17.971 10.52V8.17099C17.9708 8.00643 17.8322 7.87305 17.6611 7.87305H17.1085Z" fill="#232A34"/>
<path fill-rule="evenodd" clip-rule="evenodd" d="M13.8468 7.87305C13.6757 7.87305 13.5371 8.00643 13.5371 8.17099V10.52C13.5371 10.6846 13.6757 10.818 13.8468 10.8182H14.3996C14.5707 10.818 14.7093 10.6846 14.7093 10.52V8.17099C14.7093 8.00643 14.5707 7.87305 14.3996 7.87305H13.8468Z" fill="#232A34"/>
<path fill-rule="evenodd" clip-rule="evenodd" d="M10.5873 7.87305C10.4162 7.87305 10.2776 8.00643 10.2773 8.17099V10.52C10.2776 10.6846 10.4162 10.818 10.5873 10.8182H11.1398C11.3109 10.818 11.4495 10.6846 11.4495 10.52V8.17099C11.4495 8.00643 11.3109 7.87305 11.1398 7.87305H10.5873Z" fill="#232A34"/>
<path fill-rule="evenodd" clip-rule="evenodd" d="M17.1066 3.68848C16.9355 3.68848 16.7969 3.82206 16.7969 3.98662V6.33549C16.7969 6.50026 16.9355 6.63363 17.1066 6.63363H17.6591C17.8302 6.63363 17.9688 6.50026 17.9691 6.33549V3.98662C17.9688 3.82206 17.8302 3.68848 17.6591 3.68848H17.1066Z" fill="#232A34"/>
<path fill-rule="evenodd" clip-rule="evenodd" d="M13.8468 3.68848C13.6757 3.68848 13.5371 3.82206 13.5371 3.98662V6.33549C13.5371 6.50026 13.6757 6.63363 13.8468 6.63363H14.3996C14.5707 6.63363 14.7093 6.50026 14.7093 6.33549V3.98662C14.7093 3.82206 14.5707 3.68848 14.3996 3.68848H13.8468Z" fill="#232A34"/>
<path fill-rule="evenodd" clip-rule="evenodd" d="M10.5873 3.68848C10.4162 3.68848 10.2776 3.82206 10.2773 3.98662V6.33549C10.2776 6.50026 10.4162 6.63363 10.5873 6.63363H11.1398C11.3109 6.63363 11.4495 6.50026 11.4495 6.33549V3.98662C11.4495 3.82206 11.3109 3.68848 11.1398 3.68848H10.5873Z" fill="#232A34"/>
<path fill-rule="evenodd" clip-rule="evenodd" d="M8.58778 0.439453C8.41563 0.439453 8.2759 0.572008 8.2759 0.735331V2.58512H6.00443C5.92173 2.58512 5.84229 2.6165 5.78376 2.67204C5.72543 2.72759 5.69257 2.80274 5.69257 2.88141L5.7078 21.8666H3.53756V19.7451H3.53778C3.53778 19.7307 3.53669 19.7164 3.53452 19.7022C4.03311 19.571 4.40071 19.1319 4.40071 18.6184C4.40071 18.0035 3.8749 17.4915 3.22547 17.4915C2.57801 17.4915 2.05352 18.0035 2.05352 18.6184C2.05352 19.1315 2.4198 19.5704 2.91665 19.7017C2.91447 19.7162 2.9136 19.7306 2.9136 19.7451V21.8666H1.66699C1.33423 21.8666 1.08545 22.0904 0.93641 22.3485C0.787547 22.6066 0.708984 22.9287 0.708984 23.2803C0.708984 23.632 0.787553 23.9541 0.93641 24.2122C1.08527 24.4703 1.33424 24.6941 1.66699 24.6941H26.5835C26.9161 24.6941 27.1633 24.4703 27.3126 24.2126C27.4619 23.9549 27.5413 23.6326 27.5413 23.2803C27.5413 22.9281 27.4619 22.6058 27.3126 22.3481C27.1633 22.0904 26.9161 21.8666 26.5835 21.8666H25.3339V19.7451C25.3339 19.7306 25.333 19.7162 25.3308 19.7017C25.8275 19.5704 26.1939 19.1314 26.1939 18.6184C26.1939 18.0035 25.6692 17.4914 25.0218 17.4914C24.3743 17.4914 23.8468 18.0023 23.8468 18.6184C23.8468 19.1327 24.2154 19.571 24.7129 19.7019H24.7127C24.7108 19.7162 24.7097 19.7306 24.7099 19.7451V21.8666H22.5394V2.88138C22.5394 2.71785 22.3997 2.58529 22.2276 2.58529H19.9718V0.735506H19.9716C19.9716 0.572188 19.8321 0.439628 19.6597 0.439628L8.58778 0.439453ZM8.89965 1.0314H19.3477V21.8666H8.89965V1.0314ZM6.31657 3.17708H8.2757V21.8668H6.33178L6.31676 3.17708H6.31657ZM19.9716 3.17708H21.9153V21.8668H19.9716V3.17708ZM3.22554 18.0833C3.5324 18.0833 3.7768 18.3185 3.7768 18.6181C3.7768 18.9177 3.53371 19.1498 3.22554 19.1498C2.92151 19.1498 2.67754 18.9177 2.67754 18.6181C2.67754 18.3185 2.92281 18.0833 3.22554 18.0833ZM25.0215 18.0833C25.324 18.0833 25.5695 18.3185 25.5695 18.6181C25.5695 18.9177 25.3253 19.1498 25.0215 19.1498C24.7175 19.1498 24.4705 18.9165 24.4705 18.6181C24.4705 18.3197 24.719 18.0833 25.0215 18.0833ZM1.66665 22.4585H26.5832C26.6047 22.4585 26.68 22.4857 26.7654 22.6329C26.8504 22.7802 26.917 23.0168 26.917 23.2802C26.917 23.5437 26.8507 23.7801 26.7654 23.9273C26.68 24.0745 26.6047 24.1018 26.5832 24.1018H1.66665C1.64228 24.1018 1.56828 24.0745 1.48362 23.9277C1.39896 23.7809 1.3328 23.5441 1.3328 23.2802C1.3328 23.0163 1.39875 22.7795 1.48362 22.6325C1.56828 22.4857 1.64228 22.4584 1.66665 22.4584V22.4585Z" fill="#232A34" stroke="#232A34" stroke-width="0.2"/>
</svg>
