<svg width="27" height="27" viewBox="0 0 27 27" fill="none" xmlns="http://www.w3.org/2000/svg">
<g clip-path="url(#clip0_547_11604)">
<path fill-rule="evenodd" clip-rule="evenodd" d="M13.1319 4.87012C10.0764 4.87012 7.59766 7.40144 7.59766 10.5119C7.59766 13.6223 10.0762 16.1536 13.1319 16.1536C16.1769 16.1536 18.6548 13.6223 18.6548 10.5119C18.6548 7.40124 16.1769 4.87012 13.1319 4.87012ZM13.1319 5.51972C15.8327 5.51972 18.0189 7.7531 18.0189 10.512C18.0189 13.2709 15.8327 15.5043 13.1319 15.5043C10.4192 15.5043 8.23374 13.2709 8.23374 10.512C8.23374 7.7531 10.4194 5.51972 13.1319 5.51972Z" fill="#232A34" stroke="#232A34" stroke-width="0.3"/>
<path fill-rule="evenodd" clip-rule="evenodd" d="M13.1346 0.969727C7.92861 0.969727 3.69531 5.23734 3.69531 10.4906C3.69531 13.1661 5.31722 16.2954 7.26236 19.1485C9.00402 21.703 11.0163 24.0144 12.4292 25.5126H4.8877H4.88789C4.80297 25.5114 4.72113 25.5451 4.66059 25.6062C4.60023 25.6673 4.56618 25.7504 4.56618 25.8373C4.56618 25.9241 4.60023 26.0074 4.66059 26.0683C4.72114 26.1294 4.80297 26.1632 4.88789 26.1622H21.3719C21.457 26.1632 21.5388 26.1294 21.5992 26.0683C21.6597 26.0074 21.6938 25.9241 21.6938 25.8373C21.6938 25.7504 21.6597 25.6673 21.5992 25.6062C21.5388 25.5451 21.457 25.5114 21.3719 25.5126H13.8403C15.564 23.6998 17.6113 21.3476 19.2954 18.8341C21.1378 16.0837 22.5545 13.1484 22.5545 10.4906C22.5545 5.23734 18.3298 0.969727 13.135 0.969727H13.1346ZM13.1346 1.61933C17.989 1.61933 21.9181 5.59284 21.9181 10.4904C21.9181 12.9083 20.5763 15.7595 18.7683 18.4582C17.0342 21.047 14.8909 23.4917 13.1344 25.3197C11.7365 23.8592 9.60588 21.4379 7.78885 18.7731C5.8754 15.9666 4.3311 12.8906 4.3311 10.4904C4.3311 5.59273 8.26824 1.61933 13.1344 1.61933H13.1346Z" fill="#232A34" stroke="#232A34" stroke-width="0.3"/>
</g>
<defs>
<clipPath id="clip0_547_11604">
<rect width="26" height="26" fill="white" transform="translate(0.125 0.566406)"/>
</clipPath>
</defs>
</svg>
