<svg width="33" height="33" viewBox="0 0 33 33" fill="none" xmlns="http://www.w3.org/2000/svg">
<g clip-path="url(#clip0_547_11612)">
<path d="M4.00401 31.4106C4.00401 31.7114 4.24794 31.9553 4.54876 31.9553C4.84959 31.9553 5.09351 31.7114 5.09351 31.4106V27.6654H29.675V31.4106C29.675 31.7114 29.9189 31.9553 30.2197 31.9553C30.5206 31.9553 30.7645 31.7114 30.7645 31.4106V27.098C30.7645 26.7972 30.5057 26.5759 30.2051 26.5759H10.6086V14.1146H19.2971C19.6004 14.1087 19.8428 13.8604 19.8419 13.5572C19.8419 8.51731 15.9983 4.3519 11.0879 3.85135C10.4262 3.77256 9.75745 3.77085 9.09523 3.84673C4.18522 4.34746 0.341297 8.51792 0.341297 13.5582C0.340324 13.8612 0.582785 14.109 0.886044 14.1146H9.51857V26.5759H4.82011C3.32838 24.3288 1.28754 21.3544 1.17031 21.1642C1.01588 20.9091 0.684898 20.8257 0.428083 20.9772C0.171031 21.1287 0.083971 21.4589 0.232802 21.7175C0.360721 21.9305 3.11803 25.9957 4.0032 27.3012L4.00401 31.4106ZM10.6088 4.90161C10.8131 4.91085 10.9211 4.92399 11.0687 4.94077C12.5804 5.14918 13.5225 5.89404 14.049 7.25373C14.6229 8.73551 14.6748 10.8459 14.6781 13.0249H10.6088L10.6088 4.90161ZM18.7358 13.0249H15.7674C15.7638 10.7778 15.7161 8.52297 15.0722 6.86021C15.0004 6.67198 14.9189 6.48764 14.8282 6.30768C15.3282 6.64085 15.7932 7.02438 16.2156 7.45165C17.7108 8.93728 18.6077 10.9208 18.7358 13.0249H18.7358ZM3.96915 7.44804C4.39158 7.02172 4.85656 6.6397 5.3563 6.30749C5.26583 6.48867 5.18436 6.67398 5.11262 6.86319C4.46863 8.52613 4.42076 10.7778 4.41708 13.0249H1.44868C1.57684 10.9199 2.47374 8.93522 3.96908 7.44809L3.96915 7.44804ZM5.50658 13.0249C5.50999 10.8459 5.55425 8.73551 6.12842 7.25374C6.65493 5.8943 7.57465 5.15549 9.08662 4.94706C9.23496 4.93004 9.38307 4.91058 9.51925 4.90134V13.0246L5.50658 13.0249Z" fill="#232A34"/>
<path d="M26.2392 10.6071C27.1848 10.6071 28.0916 10.2316 28.7604 9.56285C29.4289 8.89434 29.8046 7.98744 29.8046 7.0417C29.8046 6.09614 29.4289 5.18931 28.7604 4.5208C28.0916 3.85203 27.1847 3.47656 26.2392 3.47656C25.2935 3.47656 24.3866 3.85205 23.7181 4.5208C23.0495 5.18931 22.6738 6.0962 22.6738 7.0417C22.6748 7.98701 23.0508 8.89334 23.7193 9.56167C24.3876 10.2302 25.294 10.6062 26.2393 10.6071L26.2392 10.6071ZM26.2392 4.56575V4.56599C26.8958 4.56599 27.5254 4.82669 27.9899 5.29116C28.4542 5.7554 28.7151 6.38501 28.7151 7.04163C28.7151 7.6985 28.4542 8.3281 27.9899 8.79235C27.5254 9.25685 26.8958 9.51752 26.2392 9.51752C25.5826 9.51752 24.9527 9.25682 24.4885 8.79235C24.0242 8.3281 23.7633 7.6985 23.7633 7.04163C23.7641 6.38526 24.025 5.7559 24.4892 5.2919C24.9535 4.82765 25.5828 4.56674 26.2392 4.56599V4.56575Z" fill="#232A34"/>
<path d="M29.3184 4.50707C29.4628 4.50731 29.6014 4.44992 29.7036 4.34753L30.3831 3.66806V3.66831C30.5956 3.45551 30.5956 3.11043 30.3828 2.89788C30.17 2.68508 29.8252 2.68508 29.6124 2.89788L28.9329 3.57735C28.7773 3.73299 28.7306 3.96742 28.815 4.17098C28.8991 4.37453 29.0978 4.50707 29.3181 4.50707H29.3184Z" fill="#232A34"/>
<path d="M22.7762 9.73477L22.0968 10.4142V10.414C21.8881 10.6273 21.8898 10.969 22.1009 11.1801C22.312 11.3912 22.6534 11.3931 22.867 11.1844L23.5467 10.5052C23.7592 10.2924 23.7592 9.94758 23.5467 9.73479C23.3339 9.522 22.989 9.522 22.7762 9.73479L22.7762 9.73477Z" fill="#232A34"/>
<path d="M26.2029 3.27817C26.3474 3.27817 26.486 3.22078 26.5882 3.11864C26.6903 3.0165 26.7477 2.87788 26.7477 2.73343V1.7215C26.7477 1.42068 26.5038 1.17676 26.2029 1.17676C25.9021 1.17676 25.6582 1.42068 25.6582 1.7215V2.73343C25.6582 2.87788 25.7156 3.0165 25.8177 3.11864C25.9199 3.22078 26.0585 3.27817 26.2029 3.27817Z" fill="#232A34"/>
<path d="M25.6562 11.4068V12.419C25.6562 12.7198 25.9002 12.9637 26.201 12.9637C26.5018 12.9637 26.7457 12.7198 26.7457 12.419V11.4071C26.7457 11.1062 26.5018 10.8623 26.201 10.8623C25.9002 10.8623 25.6562 11.1062 25.6562 11.4071V11.4068Z" fill="#232A34"/>
<path d="M22.7744 4.34721C22.9875 4.55781 23.3306 4.55684 23.5424 4.34502C23.7543 4.1332 23.7552 3.79006 23.5449 3.57702L22.8651 2.89755C22.6521 2.68695 22.309 2.68792 22.0971 2.89974C21.8853 3.11156 21.8841 3.4547 22.0947 3.66799L22.7744 4.34721Z" fill="#232A34"/>
<path d="M28.933 9.73499C28.8308 9.83713 28.7734 9.97551 28.7734 10.12C28.7734 10.2647 28.8308 10.403 28.933 10.5052L29.6124 11.1846C29.8257 11.3933 30.1674 11.3914 30.3785 11.1803C30.5896 10.9694 30.5916 10.6277 30.3827 10.4142L29.7032 9.73473L29.7034 9.73497C29.6013 9.63259 29.4627 9.5752 29.3182 9.5752C29.1738 9.5752 29.0351 9.63259 28.933 9.73497L28.933 9.73499Z" fill="#232A34"/>
<path d="M20.992 7.64613H21.8595C22.1603 7.64613 22.4042 7.40221 22.4042 7.10139C22.4042 6.80056 22.1603 6.55664 21.8595 6.55664H20.992C20.6912 6.55664 20.4473 6.80056 20.4473 7.10139C20.4473 7.40221 20.6912 7.64613 20.992 7.64613Z" fill="#232A34"/>
<path d="M31.5449 6.55664H30.533C30.2322 6.55664 29.9883 6.80056 29.9883 7.10139C29.9883 7.40221 30.2322 7.64613 30.533 7.64613H31.5449C31.8458 7.64613 32.0897 7.40221 32.0897 7.10139C32.0897 6.80056 31.8458 6.55664 31.5449 6.55664Z" fill="#232A34"/>
</g>
<defs>
<clipPath id="clip0_547_11612">
<rect width="32" height="32" fill="white" transform="translate(0.125 0.566406)"/>
</clipPath>
</defs>
</svg>
