<svg width="41" height="37" viewBox="0 0 41 37" fill="none" xmlns="http://www.w3.org/2000/svg">
<g clip-path="url(#clip0_547_11628)" filter="url(#filter0_d_547_11628)">
<path d="M35.6981 23.3017H33.7461C33.7038 16.8521 28.4848 11.5483 21.7382 10.7846C22.7989 10.1905 23.5203 9.08748 23.5203 7.81447C23.5203 5.94744 21.9928 4.41992 20.1257 4.41992C18.2587 4.41992 16.7312 5.94744 16.7312 7.81447C16.7312 9.08748 17.4525 10.2332 18.5133 10.7846C11.7668 11.5482 6.54774 16.852 6.50531 23.3017H4.55334C4.2988 23.3017 4.12891 23.4713 4.12891 23.7261C4.12891 23.9807 4.2985 24.1505 4.55334 24.1505H35.6976C35.9522 24.1505 36.1221 23.981 36.1221 23.7261C36.1224 23.4713 35.9102 23.3017 35.6979 23.3017H35.6981ZM17.5801 7.8144C17.5801 6.41418 18.7258 5.26839 20.1261 5.26839C21.5264 5.26839 22.6721 6.4141 22.6721 7.8144C22.6721 9.21469 21.5264 10.3604 20.1261 10.3604C18.7258 10.3604 17.5801 9.21469 17.5801 7.8144ZM20.1261 11.5484C27.1697 11.5484 32.8554 16.8099 32.8978 23.3442H7.35438C7.39671 16.81 13.0824 11.5484 20.1261 11.5484Z" fill="#232A34"/>
<path d="M35.6976 27.8633H4.55334C4.2988 27.8633 4.12891 28.0329 4.12891 28.2877C4.12891 28.5423 4.2985 28.7121 4.55334 28.7121H35.6976C35.9522 28.7121 36.1221 28.5425 36.1221 28.2877C36.1221 28.0332 35.9099 27.8633 35.6976 27.8633Z" fill="#232A34"/>
</g>
<defs>
<filter id="filter0_d_547_11628" x="0.125" y="0.566406" width="40" height="40" filterUnits="userSpaceOnUse" color-interpolation-filters="sRGB">
<feFlood flood-opacity="0" result="BackgroundImageFix"/>
<feColorMatrix in="SourceAlpha" type="matrix" values="0 0 0 0 0 0 0 0 0 0 0 0 0 0 0 0 0 0 127 0" result="hardAlpha"/>
<feOffset dy="4"/>
<feGaussianBlur stdDeviation="2"/>
<feComposite in2="hardAlpha" operator="out"/>
<feColorMatrix type="matrix" values="0 0 0 0 0 0 0 0 0 0 0 0 0 0 0 0 0 0 0.25 0"/>
<feBlend mode="normal" in2="BackgroundImageFix" result="effect1_dropShadow_547_11628"/>
<feBlend mode="normal" in="SourceGraphic" in2="effect1_dropShadow_547_11628" result="shape"/>
</filter>
<clipPath id="clip0_547_11628">
<rect width="32" height="32" fill="white" transform="translate(4.125 0.566406)"/>
</clipPath>
</defs>
</svg>
