<svg width="1366" height="537" fill="none" xmlns="http://www.w3.org/2000/svg"><path opacity=".5" d="M1290 126.566l.5-.036-.5.036zm-92 45.5l.48-.154-.48.154zm95.5 141l-.41.284.41-.284zm-90 193.5l.15-.478-.15.478zm-163.5 28l-.03.499.03-.499zm-172-52l-.001.5.001-.5zm-140 52l-.003-.5.003.5zm-207-44l.065-.495-.065.495zm-360 44l.036-.498-.036.498zm-179.378-25.79a.5.5 0 10.189-.982l-.189.982zm7.797.461a.5.5 0 10-.184.982l.184-.982zm7.414 2.394a.5.5 0 10.18-.983l-.18.983zm7.746.398a.5.5 0 00-.178.984l.178-.984zm7.43 2.351a.5.5 0 00.175-.985l-.175.985zm7.752.354a.5.5 0 10-.173.985l.173-.985zm7.436 2.306a.5.5 0 00.17-.986l-.17.986zm7.785.314a.5.5 0 10-.167.986l.167-.986zm7.452 2.263a.5.5 0 00.164-.987l-.164.987zm7.765.263a.5.5 0 00-.16.987l.16-.987zm7.452 2.214a.5.5 0 00.157-.988l-.157.988zm7.773.212a.5.5 0 00-.154.988l.154-.988zm7.471 2.162a.5.5 0 10.15-.988l-.15.988zm7.776.156a.501.501 0 00-.146.99l.146-.99zm7.489 2.104a.5.5 0 00.142-.99l-.142.99zm7.777.09a.5.5 0 00-.138.99l.138-.99zm7.507 2.035a.499.499 0 10.133-.991l-.133.991zm7.778.014a.5.5 0 00-.128.992l.128-.992zm7.529 1.954a.501.501 0 00.121-.993l-.121.993zm7.777-.079a.5.5 0 10-.115.993l.115-.993zm7.555 1.854a.5.5 0 00.108-.994l-.108.994zm7.778-.195a.5.5 0 00-.1.995l.1-.995zm7.587 1.726a.5.5 0 00.09-.996l-.09.996zm7.774-.347a.5.5 0 10-.079.997l.079-.997zm7.777 1.559a.5.5 0 00.064-.998l-.064.998zm7.973-.565a.5.5 0 00-.046.999l.046-.999zm7.93 1.294a.5.5 0 10.028-.999l-.028.999zm7.903-.852a.5.5 0 00-.009 1l.009-1zm8.006.997a.5.5 0 00-.01-1l.01 1zm7.893-1.157a.5.5 0 00.03.999l-.03-.999zm7.988.681a.498.498 0 10-.05-.998l.05.998zm7.887-1.478a.5.5 0 10.071.997l-.071-.997zm7.963.356a.5.5 0 10-.091-.996l.091.996zm7.827-1.806a.5.5 0 10.112.994l-.112-.994zm8.016.018a.5.5 0 10-.132-.991l.132.991zm7.698-2.122a.5.5 0 10.154.988l-.154-.988zm8.007-.31a.5.5 0 10-.172-.985l.172.985zm7.645-2.434a.5.5 0 10.191.981l-.191-.981zm7.978-.614a.5.5 0 10-.209-.978l.209.978zm7.521-2.703a.5.5 0 00.226.974l-.226-.974zm7.97-.885a.5.5 0 00-.24-.971l.24.971zm7.458-2.936a.5.5 0 10.254.967l-.254-.967zm7.931-1.095a.5.5 0 10-.265-.964l.265.964zm7.378-3.1a.5.5 0 10.273.962l-.273-.962zm7.91-1.237a.5.5 0 10-.279-.96l.279.96zm7.348-3.198a.5.5 0 10.283.959l-.283-.959zm7.903-1.296a.499.499 0 10-.284-.959l.284.959zm7.335-3.212a.5.5 0 00.282.96l-.282-.96zm7.908-1.268a.5.5 0 10-.278-.96l.278.96zm7.368-3.144a.5.5 0 10.271.963l-.271-.963zm7.922-1.149a.5.5 0 10-.261-.965l.261.965zm7.424-2.993a.5.5 0 00.249.968l-.249-.968zm7.952-.951a.5.5 0 00-.234-.972l.234.972zm7.523-2.774a.5.5 0 10.217.976l-.217-.976zm7.978-.68a.5.5 0 10-.199-.98l.199.98zm7.6-2.485a.499.499 0 10.179.983l-.179-.983zm7.998-.357a.5.5 0 00-.158-.987l.158.987zm7.73-2.162a.5.5 0 10.136.991l-.136-.991zm8.002.001a.5.5 0 10-.114-.993l.114.993zm7.783-1.802a.5.5 0 00.09.996l-.09-.996zm8.012.372a.5.5 0 00-.067-.998l.067.998zm7.895-1.439a.5.5 0 00.044.999l-.044-.999zm7.939.744a.5.5 0 00-.021-1l.021 1zm7.954-1.077a.5.5 0 10-.001 1l.001-1zm7.938 1.1a.5.5 0 10.023-1l-.023 1zm7.945-.73a.5.5 0 10-.045.999l.045-.999zm7.941 1.437a.5.5 0 10.065-.998l-.065.998zm7.935-.407a.5.5 0 10-.084.996l.084-.996zm7.845 1.745a.5.5 0 00.103-.995l-.103.995zm7.99-.104a.5.5 0 00-.121.993l.121-.993zm7.91 2.06a.5.5 0 00.146-.989l-.146.989zm8.223.316a.5.5 0 10-.173.985l.173-.985zm7.83 2.49a.501.501 0 00.196-.981l-.196.981zm8.189.703a.501.501 0 00-.215.977l.215-.977zm7.732 2.804a.501.501 0 00.232-.973l-.232.973zm8.168.98a.5.5 0 10-.245.969l.245-.969zm7.646 3.015a.5.5 0 00.256-.967l-.256.967zm8.138 1.158a.5.5 0 00-.264.965l.264-.965zm7.597 3.147a.5.5 0 00.27-.963l-.27.963zm8.126 1.261a.5.5 0 10-.274.962l.274-.962zm7.572 3.207a.5.5 0 10.276-.961l-.276.961zm8.119 1.291a.5.5 0 00-.276.961l.276-.961zm7.573 3.204a.5.5 0 00.273-.962l-.273.962zm8.126 1.255a.5.5 0 00-.27.963l.27-.963zm7.599 3.138a.5.5 0 10.263-.965l-.263.965zm8.14 1.149a.5.5 0 00-.255.967l.255-.967zm7.653 3.008a.5.5 0 00.244-.97l-.244.97zm8.166.973a.5.5 0 00-.232.973l.232-.973zm7.73 2.804a.5.5 0 00.217-.976l-.217.976zm8.19.714a.5.5 0 10-.198.98l.198-.98zm7.823 2.515a.5.5 0 00.177-.984l-.177.984zm8.217.363a.5.5 0 00-.152.988l.152-.988zm7.946 2.125a.5.5 0 10.124-.992l-.124.992zm8.218-.103a.5.5 0 10-.093.996l.093-.996zm8.057 1.61a.501.501 0 00.057-.999l-.057.999zm8.197-.701a.5.5 0 10-.015 1l.015-1zm7.936.936a.5.5 0 00-.036-1l.036 1zm7.509-1.513a.5.5 0 00.101.995l-.101-.995zm7.697-.048a.5.5 0 00-.172-.985l.172.985zm7.234-2.583a.5.5 0 10.25.968l-.25-.968zm7.581-1.25a.5.5 0 00-.329-.944l.329.944zm6.707-3.728a.5.5 0 10.405.915l-.405-.915zm7.287-2.459a.5.5 0 00-.473-.881l.473.881zm6.093-4.684a.5.5 0 10.527.85l-.527-.85zm6.925-3.327a.5.5 0 00-.564-.826l.564.826zm5.664-5.197a.5.5 0 00.582.813l-.582-.813zm6.772-3.635a.5.5 0 00-.582-.813l.582.813zm5.669-5.192a.5.5 0 00.562.827l-.562-.827zm6.931-3.313a.5.5 0 10-.525-.851l.525.851zm6.107-4.665a.5.5 0 00.47.883l-.47-.883zm7.299-2.427a.501.501 0 00-.401-.917l.401.917zm6.727-3.69a.501.501 0 00.323.947l-.323-.947zm7.589-1.198a.5.5 0 10-.243-.97l.243.97zm7.253-2.527a.499.499 0 10.165.986l-.165-.986zm7.698.015a.5.5 0 00-.092-.995l.092.995zm7.521-1.448a.5.5 0 00.028 1l-.028-1zm7.956 1.039a.5.5 0 10.041-.999l-.041.999zm8.27-.363a.5.5 0 10-.112.994l.112-.994zm7.99 2.174a.5.5 0 00.174-.985l-.174.985zm8.25.684a.5.5 0 00-.229.974l.229-.974zm7.704 3.039a.5.5 0 00.273-.962l-.273.962zm8.152 1.454a.5.5 0 00-.312.95l.312-.95zm7.441 3.631a.499.499 0 10.342-.94l-.342.94zm8.046 1.972a.5.5 0 00-.365.931l.365-.931zm7.249 4.001a.5.5 0 10.382-.924l-.382.924zm7.964 2.275a.5.5 0 00-.394.919l.394-.919zm7.143 4.19a.5.5 0 00.401-.916l-.401.916zm7.929 2.393a.5.5 0 10-.403.915l.403-.915zm7.126 4.219a.5.5 0 10.4-.916l-.4.916zm7.945 2.34a.5.5 0 00-.392.92l.392-.92zm7.198 4.093a.5.5 0 00.378-.926l-.378.926zm8.01 2.11a.5.5 0 00-.359.933l.359-.933zm7.359 3.796a.501.501 0 00.335-.943l-.335.943zm8.115 1.678a.498.498 0 00-.63.325c-.09.263.06.544.32.628l.31-.953zm7.59 3.293c.27.073.54-.084.62-.35a.507.507 0 00-.35-.614l-.27.964zm8.22 1.01a.503.503 0 00-.6.38c-.05.269.12.536.38.596l.22-.976zm7.88 2.537c.28.044.53-.141.58-.413a.502.502 0 00-.42-.574l-.16.987zm8.28.068a.494.494 0 00-.54.45c-.03.275.17.519.45.545l.09-.995zm8.02 1.47c.27.005.5-.216.5-.492a.493.493 0 00-.49-.508l-.01 1zm7.8-1.257a.503.503 0 00-.46.541c.03.275.27.479.54.456l-.08-.997zm7.93-.116a.495.495 0 00.39-.589.5.5 0 00-.59-.391l.2.98zm7.34-2.983a.51.51 0 00-.32.632.5.5 0 00.63.318l-.31-.95zm7.67-1.97a.495.495 0 00.24-.663.497.497 0 00-.66-.244l.42.907zm6.51-4.517a.509.509 0 00-.19.683c.14.239.45.322.69.184l-.5-.867zm7.22-3.272a.5.5 0 00.14-.691.497.497 0 00-.69-.147l.55.838zm6-5.187a.503.503 0 00-.14.693c.15.23.47.291.69.138l-.55-.831zm7.12-3.481a.5.5 0 00-.54-.844l.54.844zm6.23-4.898a.495.495 0 00-.19.68c.13.241.44.328.68.193l-.49-.873zm7.46-2.655c.25-.113.36-.41.25-.661a.498.498 0 00-.66-.25l.41.911zm6.94-3.823a.498.498 0 00-.31.634c.09.261.37.401.64.312l-.33-.946zm7.84-1.192a.5.5 0 10-.22-.975l.22.975zm7.55-2.379a.492.492 0 00-.43.561c.03.274.28.466.56.43l-.13-.991zm7.91.296a.502.502 0 00.48-.523.498.498 0 00-.52-.475l.04.998zm7.88-1.077a.503.503 0 00-.51.487c-.01.276.21.506.49.513l.02-1zm7.8 1.453c.28.024.52-.179.55-.454a.504.504 0 00-.46-.542l-.09.996zm7.92-.091a.507.507 0 00-.57.425c-.03.273.16.526.43.565l.14-.99zm7.6 2.269a.5.5 0 10.19-.982l-.19.982zm7.93.628a.5.5 0 10-.22.975l.22-.975zm7.35 2.833a.501.501 0 00.26-.967l-.26.967zm7.81 1.131a.502.502 0 00-.62.339c-.07.265.08.543.34.621l.28-.96zm7.6 2.981a.5.5 0 00.13-.991l-.13.991zm8.05-.932a.496.496 0 00-.45.547c.03.275.27.475.55.448l-.1-.995zm8.13-.481a.5.5 0 00.35-.609.49.49 0 00-.6-.359l.25.968zm7.37-3.427a.498.498 0 00.35.934l-.35-.934zm7.82-2.314c.25-.121.36-.42.23-.669a.494.494 0 00-.66-.231l.43.9zm6.68-4.691a.497.497 0 00-.18.683c.14.239.44.32.68.182l-.5-.865zm7.37-3.42c.23-.154.3-.464.14-.694a.496.496 0 00-.69-.138l.55.832zm6.01-5.496a.498.498 0 00-.1.701.5.5 0 00.7.098l-.6-.799zm6.93-4.263a.491.491 0 00.06-.705.494.494 0 00-.7-.059l.64.764zm5.38-6.122a.51.51 0 00-.03.707c.19.201.51.211.71.022l-.68-.729zm6.45-4.97a.5.5 0 00-.01-.707.504.504 0 00-.71.014l.72.693zm4.71-6.643a.51.51 0 00.05.706c.21.181.53.158.71-.05l-.76-.656zm5.91-5.606a.506.506 0 00-.08-.702.51.51 0 00-.71.087l.79.615zm4-7.096c-.16.227-.1.538.12.696.23.159.54.103.7-.123l-.82-.573zm5.28-6.201a.5.5 0 10-.85-.527l.85.527zm3.2-7.49a.505.505 0 00.2.679c.24.132.55.042.68-.201l-.88-.478zm4.54-6.759a.497.497 0 00-.24-.665.492.492 0 00-.66.24l.9.425zm2.29-7.814a.499.499 0 10.93.368l-.93-.368zm3.68-7.265a.503.503 0 00-.96-.307l.96.307zm1.26-8.04c-.07.268.1.539.36.606.27.067.54-.096.61-.364l-.97-.242zm2.67-7.691a.511.511 0 00-.41-.579.502.502 0 00-.58.405l.99.174zm.13-8.136c-.03.275.17.52.45.549a.49.49 0 00.54-.446l-.99-.103zm1.54-7.991a.508.508 0 00-.49-.515.489.489 0 00-.51.485l1 .03zm-1.06-8.069c.01.276.24.49.52.477a.508.508 0 00.48-.522l-1 .045zm.33-8.136a.495.495 0 00-.55-.437.5.5 0 00-.44.556l.99-.119zm-2.24-7.838c.05.271.31.448.58.395a.498.498 0 00.4-.586l-.98.191zm-.86-8.098a.504.504 0 00-.62-.352.506.506 0 00-.35.613l.97-.261zm-3.33-7.401c.09.261.37.399.63.309.26-.091.4-.376.31-.637l-.94.328zm-1.96-7.885a.499.499 0 10-.92.389l.92-.389zm-4.29-6.932c.12.247.42.347.67.224a.507.507 0 00.22-.67l-.89.446zm-2.96-7.628a.51.51 0 00-.69-.185.505.505 0 00-.18.683l.87-.498zm-5.04-6.319a.5.5 0 00.69.147c.23-.151.3-.46.15-.692l-.84.545zm-3.49-7.526a.507.507 0 00-.67-.24.508.508 0 00-.24.666l.91-.426zm-3.38-7.651c.04.272.3.455.58.408a.494.494 0 00.4-.578l-.98.17zm.39-8.381a.505.505 0 00-.5-.506.497.497 0 00-.5.494l1 .012zm-.35-8.427a.51.51 0 00.43.563c.27.037.53-.154.56-.428l-.99-.135zm2.47-8.007a.5.5 0 00-.38-.597.493.493 0 00-.59.379l.97.218zm1.11-8.347a.5.5 0 10.96.275l-.96-.275zm3.45-7.688a.51.51 0 00-.32-.633.495.495 0 00-.63.316l.95.317zm1.84-8.194c-.1.259.03.547.29.643.26.096.55-.036.64-.294l-.93-.349zm3.94-7.43a.508.508 0 00-.28-.65.497.497 0 00-.65.279l.93.371zm2.24-8.109c-.1.255.02.548.27.655.26.107.55-.013.66-.267l-.93-.388zm4.21-7.288a.495.495 0 00-.26-.658.492.492 0 00-.65.26l.91.398zm2.45-8.047c-.11.253 0 .548.25.66.26.112.55-.001.66-.254l-.91-.406zm4.32-7.221a.503.503 0 00-.25-.66.496.496 0 00-.66.252l.91.408zm2.5-8.037c-.12.252 0 .547.25.66a.5.5 0 00.66-.253l-.91-.407zm4.29-7.241a.502.502 0 00-.92-.4l.92.4zm2.38-8.065c-.11.255.01.548.27.655.25.108.54-.012.65-.266l-.92-.389zm4.08-7.327a.498.498 0 00-.28-.649.503.503 0 00-.65.281l.93.368zm2.03-8.197c-.09.26.05.546.31.639.26.093.54-.042.63-.302l-.94-.337zm3.56-7.606a.5.5 0 00-.33-.622.491.491 0 00-.62.336l.95.286zm1.1-8.357c-.06.271.12.535.39.59.27.054.53-.121.59-.391l-.98-.199zm2.02-8.158a.499.499 0 00-.48-.515.504.504 0 00-.52.485l1 .03zm-2.05-8.07a.504.504 0 00.95-.335l-.95.335zm-3.82-6.979a.506.506 0 00-.71.052.5.5 0 00.05.705l.66-.757zm-7.04-3.458a.501.501 0 10.47-.885l-.47.885zm-6.72-4.042a.498.498 0 10-.34.938l.34-.938zm-7.69-1.418c.27.074.54-.082.62-.349a.509.509 0 00-.35-.615l-.27.964zm-7.34-2.796a.5.5 0 00-.59.388c-.05.27.12.535.39.591l.2-.979zm-7.83-.391c.27.041.52-.146.56-.419a.49.49 0 00-.41-.57l-.15.989zm-7.58-1.977a.498.498 0 00-.55.445c-.03.275.17.521.44.55l.11-.995zm-7.84.365a.501.501 0 00.06-.999l-.06.999zm-7.74-1.291a.495.495 0 00-.5.492c-.01.276.21.504.49.508l.01-1zm-7.77 1.049a.5.5 0 10-.03-1l.03 1zm-7.82-.598a.501.501 0 10.08.998l-.08-.998zm-7.64 1.774a.497.497 0 00.43-.559.495.495 0 00-.56-.433l.13.992zm-7.84.208a.5.5 0 00.18.983l-.18-.983zm-7.36 2.645a.5.5 0 10-.25-.969l.25.969zm-7.76 1.285a.49.49 0 00-.3.637c.09.261.37.399.63.308l-.33-.945zm-6.82 3.847a.497.497 0 00.24-.665.505.505 0 00-.67-.239l.43.904zm-7.28 2.904a.501.501 0 00.55.836l-.55-.836zm-5.45 5.603a.5.5 0 10-.7-.717l.7.717zm-5.65 5.414a.5.5 0 00.17.687c.23.144.54.07.69-.166l-.86-.521zm-2.13 7.497a.5.5 0 00-.36-.611.496.496 0 00-.61.355l.97.256zm-1.9 7.584c0 .276.23.497.51.493a.505.505 0 00.49-.508l-1 .015zm1.96 7.538a.498.498 0 10-.97.226l.97-.226zm1.57 8.109a.497.497 0 10.92-.374l-.92.374zm4.65 7.094a.499.499 0 10-.85.523l.85-.523zm4.31 7.29c.19.2.51.208.71.017a.5.5 0 00.01-.707l-.72.69zm7.13 4.558a.489.489 0 00-.68.16.492.492 0 00.16.689l.52-.849zm7.26 4.353c.27.079.55-.072.63-.336a.513.513 0 00-.34-.622l-.29.958zm8.47.374a.498.498 0 00-.52.48c-.01.276.2.509.48.519l.04-.999zm8.46.394a.495.495 0 00.41-.579.503.503 0 00-.58-.406l.17.985zm7.87-3.19a.507.507 0 00-.3.643c.1.259.39.391.65.295l-.35-.938zm8.06-2.638a.5.5 0 10-.48-.873l.48.873zm6.52-5.448a.506.506 0 00-.1.7.5.5 0 00.7.099l-.6-.799zm7.05-4.738a.5.5 0 00.01-.707.491.491 0 00-.7-.01l.69.717zm4.94-6.906c-.17.215-.14.53.08.703.21.174.53.14.7-.074l-.78-.629zm5.72-6.274a.492.492 0 00-.16-.689.5.5 0 00-.69.156l.85.533zm3.21-7.868a.497.497 0 00.23.667c.25.12.55.014.67-.235l-.9-.432zm4.11-7.424a.5.5 0 00-.31-.635.494.494 0 00-.63.311l.94.324zm1.31-8.388a.498.498 0 10.97.212l-.97-.212zm2.29-8.179a.51.51 0 00-.45-.547.504.504 0 00-.55.449l1 .098zm-.66-8.46c0 .276.23.496.51.492a.506.506 0 00.49-.508l-1 .016zm.66-8.083a.508.508 0 00-.51-.496.493.493 0 00-.49.503l1-.007zm-.59-7.734c-.03.274.17.522.44.552.28.031.52-.166.55-.441l-.99-.111zm2.24-7.42a.498.498 0 00-.38-.595.507.507 0 00-.6.383l.98.212zm1-7.696c-.08.264.07.544.33.626a.5.5 0 00.63-.329l-.96-.297zm3.51-6.927a.502.502 0 00-.29-.649.493.493 0 00-.64.282l.93.367zm2.13-7.455a.497.497 0 10.9.424l-.9-.424zm4.35-6.428a.497.497 0 00-.21-.677.493.493 0 00-.67.205l.88.472zm2.93-7.188a.507.507 0 00.17.686c.24.142.55.065.69-.172l-.86-.514zm4.94-5.987c.15-.23.09-.54-.14-.692a.507.507 0 00-.7.144l.84.548zm3.52-6.92a.503.503 0 00.11.697c.23.16.54.107.7-.118l-.81-.579zm5.36-5.611a.498.498 0 00-.1-.7.5.5 0 00-.7.095l.8.605zm3.96-6.672a.498.498 0 10.77.628l-.77-.628zm5.68-5.286a.499.499 0 10-.76-.649l.76.649zm4.32-6.46a.5.5 0 00.04.706c.21.184.52.167.71-.039l-.75-.667zm5.94-4.99a.51.51 0 00-.03-.706.492.492 0 00-.7.023l.73.684zm4.61-6.253a.5.5 0 00.01.708c.19.193.51.19.7-.007l-.71-.7zm6.15-4.724a.5.5 0 000-.707.491.491 0 00-.7-.008l.7.715zm4.88-6.06a.5.5 0 00-.02.707c.19.201.5.211.7.022l-.68-.729zm6.35-4.47a.5.5 0 10-.67-.744l.67.744zm5.14-5.83a.509.509 0 00-.06.705c.18.21.5.236.71.057l-.65-.762zM-22 507.566l-.096.491.003.001.012.002.046.009.18.035.713.139c.627.122 1.557.302 2.764.533l.189-.982a918.827 918.827 0 01-2.763-.533l-.71-.138-.181-.035-.046-.009-.01-.002-.004-.001-.097.49zm11.235 2.653c2.246.422 4.79.895 7.598 1.412l.18-.983c-2.807-.517-5.35-.99-7.594-1.411l-.184.982zm15.166 2.794c2.408.437 4.949.893 7.608 1.367l.175-.985c-2.658-.473-5.198-.93-7.605-1.366l-.178.984zm15.187 2.706c2.46.431 5 .872 7.608 1.321l.17-.986c-2.607-.449-5.146-.89-7.605-1.32l-.173.985zm15.227 2.621c2.49.421 5.032.848 7.619 1.277l.164-.987c-2.586-.429-5.127-.855-7.616-1.276l-.167.986zm15.223 2.527c2.506.408 5.045.817 7.613 1.227l.157-.988a2223.31 2223.31 0 01-7.61-1.226l-.16.987zm15.232 2.427c2.522.394 5.065.785 7.625 1.174l.15-.988c-2.558-.389-5.1-.781-7.62-1.174l-.155.988zm15.255 2.32c2.535.375 5.081.747 7.635 1.114l.142-.99a1859.04 1859.04 0 01-7.63-1.114l-.147.99zm15.274 2.194c2.548.355 5.098.704 7.645 1.045l.133-.991c-2.546-.341-5.094-.69-7.64-1.044l-.138.99zm15.295 2.051c2.561.329 5.114.65 7.657.962l.121-.993c-2.54-.311-5.091-.632-7.65-.961l-.128.992zm15.319 1.876c2.575.299 5.134.586 7.67.861l.108-.994c-2.534-.275-5.09-.562-7.663-.86l-.115.993zm15.348 1.661c2.594.259 5.158.503 7.687.731l.09-.996a768.37 768.37 0 01-7.677-.73l-.1.995zm15.382 1.381c1.285.101 2.559.197 3.821.288l.072-.997c-1.26-.091-2.532-.187-3.814-.288l-.079.997zm3.821.288c1.353.098 2.698.189 4.035.274l.064-.998a498.643 498.643 0 01-4.027-.273l-.072.997zm11.962.708c2.691.124 5.349.222 7.976.295l.028-.999a435.002 435.002 0 01-7.958-.295l-.046.999zm15.87.443c2.705.025 5.376.024 8.015-.003l-.01-1c-2.632.027-5.297.028-7.996.003l-.009 1zm15.938-.161c2.686-.08 5.338-.186 7.958-.318l-.05-.998c-2.613.131-5.258.237-7.938.317l.03.999zm15.916-.799c2.663-.188 5.293-.403 7.892-.641l-.091-.996c-2.592.238-5.215.452-7.872.64l.071.997zm15.831-1.453c2.667-.301 5.301-.627 7.904-.976l-.132-.991c-2.597.348-5.224.673-7.884.973l.112.994zm15.756-2.11c2.648-.41 5.265-.844 7.853-1.298l-.172-.985c-2.583.453-5.193.885-7.835 1.295l.154.988zm15.689-2.751a438.187 438.187 0 007.787-1.595l-.209-.978a439.818 439.818 0 01-7.769 1.592l.191.981zm15.534-3.324a517.154 517.154 0 007.744-1.859l-.24-.971a521.23 521.23 0 01-7.73 1.856l.226.974zm15.456-3.828a706.635 706.635 0 007.677-2.062l-.265-.964a698.533 698.533 0 01-7.666 2.059l.254.967zm15.328-4.2c2.557-.727 5.102-1.461 7.637-2.199l-.279-.96c-2.534.738-5.076 1.471-7.631 2.197l.273.962zm15.268-4.438c2.545-.751 5.084-1.504 7.62-2.255l-.284-.959c-2.537.751-5.075 1.504-7.619 2.255l.283.959zm15.237-4.507c2.54-.748 5.08-1.491 7.626-2.228l-.278-.96c-2.547.737-5.089 1.481-7.63 2.228l.282.96zm15.265-4.409a771.29 771.29 0 017.651-2.112l-.261-.965a793.647 793.647 0 00-7.661 2.114l.271.963zm15.324-4.137a541.592 541.592 0 017.703-1.919l-.234-.972c-2.59.624-5.161 1.266-7.718 1.923l.249.968zm15.443-3.717a427.794 427.794 0 017.761-1.656l-.199-.98a426.153 426.153 0 00-7.779 1.66l.217.976zm15.54-3.158c2.581-.47 5.186-.918 7.819-1.34l-.158-.987c-2.64.423-5.253.872-7.84 1.344l.179.983zm15.685-2.511c2.593-.357 5.214-.687 7.866-.99l-.114-.993c-2.659.303-5.288.635-7.888.992l.136.991zm15.739-1.796a340.33 340.33 0 017.922-.624l-.067-.998c-2.681.18-5.328.389-7.945.626l.09.996zm15.861-1.064c2.599-.114 5.23-.199 7.895-.255l-.021-1a348.26 348.26 0 00-7.918.256l.044.999zm15.848-.332c2.613.004 5.259.037 7.939.1l.023-1a363.25 363.25 0 00-7.961-.1l-.001 1zm15.839.369c2.629.117 5.29.262 7.986.438l.065-.998a387.908 387.908 0 00-8.006-.439l-.045.999zm15.837 1.027c2.611.222 5.253.471 7.929.749l.103-.995a419.498 419.498 0 00-7.948-.75l-.084.996zm15.798 1.638c1.328.162 2.663.331 4.007.507l.13-.991a459.912 459.912 0 00-4.016-.509l-.121.993zm4.007.507c1.337.175 2.678.362 4.024.56l.146-.989a257.461 257.461 0 00-4.04-.562l-.13.991zm12.074 1.861c2.652.465 5.321.968 8.003 1.505l.196-.981a345.112 345.112 0 00-8.026-1.509l-.173.985zm15.977 3.185c2.637.582 5.286 1.193 7.947 1.827l.232-.973a499.653 499.653 0 00-7.964-1.831l-.215.977zm15.87 3.776c2.621.664 5.252 1.347 7.891 2.046l.256-.967c-2.642-.7-5.276-1.384-7.902-2.048l-.245.969zm15.765 4.169c2.614.716 5.234 1.445 7.861 2.182l.27-.963a1305.15 1305.15 0 00-7.867-2.184l-.264.965zm15.713 4.405c2.611.744 5.227 1.494 7.846 2.245l.276-.961c-2.619-.752-5.236-1.502-7.848-2.246l-.274.962zm15.689 4.497c2.615.75 5.231 1.499 7.849 2.243l.273-.962c-2.616-.744-5.232-1.492-7.846-2.242l-.276.961zm15.705 4.461c2.624.733 5.247 1.46 7.869 2.175l.263-.965c-2.62-.715-5.241-1.44-7.862-2.173l-.27.963zm15.754 4.291c2.639.696 5.275 1.377 7.908 2.041l.244-.97a751.968 751.968 0 01-7.897-2.038l-.255.967zm15.842 3.987c2.659.633 5.314 1.244 7.962 1.831l.217-.976a520.474 520.474 0 01-7.947-1.828l-.232.973zm15.954 3.525c2.681.542 5.355 1.055 8.021 1.535l.177-.984a383.28 383.28 0 01-8-1.531l-.198.98zm16.086 2.886c2.709.419 5.409.799 8.098 1.137l.124-.992a291.18 291.18 0 01-8.07-1.133l-.152.988zm16.223 2.03a228.3 228.3 0 008.15.614l.057-.999a221.75 221.75 0 01-8.114-.611l-.093.996zm16.332.913c1.366.021 2.727.027 4.084.018l-.006-1c-1.35.009-2.704.003-4.063-.018l-.015 1zm4.084.018c1.313-.008 2.601-.036 3.867-.082l-.036-1c-1.256.046-2.535.074-3.837.082l.006 1zm11.477-.6c2.633-.266 5.162-.617 7.596-1.043l-.172-.985c-2.41.422-4.915.769-7.525 1.033l.101.995zm15.08-2.658a92.125 92.125 0 007.331-2.218l-.329-.944a91.512 91.512 0 01-7.252 2.194l.25.968zm14.443-5.031a101.532 101.532 0 006.882-3.374l-.473-.881a100.44 100.44 0 01-6.814 3.34l.405.915zm13.502-7.208a173.429 173.429 0 006.398-4.177l-.564-.826a171.771 171.771 0 01-6.361 4.153l.527.85zm12.644-8.561c2.08-1.488 4.114-2.963 6.19-4.448l-.582-.813c-2.058 1.473-4.134 2.976-6.19 4.448l.582.813zm12.421-8.813a168.084 168.084 0 016.369-4.14l-.525-.851a168.927 168.927 0 00-6.406 4.164l.562.827zm12.946-7.922a98.57 98.57 0 016.829-3.31l-.401-.917a100.14 100.14 0 00-6.898 3.344l.47.883zm13.879-6.053a90.388 90.388 0 017.266-2.145l-.243-.97a91.607 91.607 0 00-7.346 2.168l.323.947zm14.684-3.686c2.413-.402 4.92-.729 7.533-.971l-.092-.995c-2.637.244-5.168.573-7.606.98l.165.986zm15.082-1.419c1.256-.035 2.535-.051 3.838-.049l.002-1c-1.313-.002-2.602.014-3.868.049l.028 1zm3.838-.049c1.364.003 2.728.033 4.09.088l.041-.999a107.222 107.222 0 00-4.129-.089l-.002 1zm12.248.719c2.703.304 5.403.701 8.102 1.18l.174-.985a130.288 130.288 0 00-8.164-1.189l-.112.994zm16.123 2.838c2.646.621 5.29 1.312 7.933 2.065l.273-.962a176.574 176.574 0 00-7.977-2.077l-.229.974zm15.773 4.469c2.586.847 5.17 1.743 7.753 2.681l.342-.94a259.894 259.894 0 00-7.783-2.691l-.312.95zm15.434 5.584a432.57 432.57 0 017.614 3.07l.382-.924a436.019 436.019 0 00-7.631-3.077l-.365.931zm15.184 6.264c2.512 1.078 5.025 2.171 7.537 3.271l.401-.916a1074.656 1074.656 0 00-7.544-3.274l-.394.919zm15.063 6.579a2357.39 2357.39 0 007.529 3.304l.4-.916c-2.509-1.095-5.017-2.199-7.526-3.303l-.403.915zm15.082 6.564a570.8 570.8 0 007.59 3.173l.378-.926a561.063 561.063 0 01-7.576-3.167l-.392.92zm15.241 6.216a312.44 312.44 0 007.718 2.863l.335-.943a309.42 309.42 0 01-7.694-2.853l-.359.933zm15.523 5.494c2.63.836 5.27 1.62 7.9 2.34l.27-.964c-2.62-.717-5.25-1.496-7.86-2.329l-.31.953zm15.9 4.326c2.7.598 5.4 1.122 8.1 1.561l.16-.987c-2.68-.436-5.36-.956-8.04-1.55l-.22.976zm16.29 2.624c1.37.132 2.74.24 4.11.322l.06-.998a114.29 114.29 0 01-4.08-.319l-.09.995zm4.11.322c1.36.083 2.7.133 4 .153l.01-1c-1.28-.02-2.6-.07-3.95-.151l-.06.998zm11.88-.107c2.76-.233 5.36-.611 7.85-1.113l-.2-.98c-2.45.494-5.02.867-7.73 1.096l.08.997zm15.5-3.146a70.465 70.465 0 007.36-2.92l-.42-.907a69.458 69.458 0 01-7.25 2.877l.31.95zm14.37-6.57c2.29-1.318 4.51-2.71 6.72-4.139l-.55-.838c-2.19 1.423-4.4 2.804-6.67 4.11l.5.867zm13.27-8.495c2.17-1.448 4.34-2.896 6.57-4.312l-.54-.844a318.785 318.785 0 00-6.58 4.325l.55.831zm13.29-8.337a92.626 92.626 0 016.97-3.528l-.41-.911a93.213 93.213 0 00-7.05 3.566l.49.873zm14.24-6.405c2.38-.81 4.88-1.529 7.51-2.138l-.22-.975c-2.67.617-5.2 1.346-7.62 2.167l.33.946zm15.19-3.526c2.47-.329 5.06-.565 7.78-.695l-.04-.998c-2.75.13-5.37.369-7.87.702l.13.991zm15.64-.772c2.5.065 5.11.213 7.82.453l.09-.996c-2.73-.242-5.36-.392-7.89-.457l-.02 1zm15.6 1.352c2.49.354 5.07.778 7.74 1.279l.19-.982c-2.69-.504-5.28-.931-7.79-1.287l-.14.99zm15.45 2.882c2.45.558 4.97 1.177 7.57 1.858l.26-.967c-2.61-.684-5.15-1.305-7.61-1.866l-.22.975zm15.1 3.949c1.27.37 2.55.755 3.85 1.154l.3-.956c-1.31-.4-2.6-.786-3.87-1.158l-.28.96zm3.85 1.154c1.28.392 2.62.68 4.03.867l.13-.991a23.626 23.626 0 01-3.86-.832l-.3.956zm12.18.93c2.56-.257 5.25-.754 8.03-1.476l-.25-.968c-2.74.711-5.38 1.198-7.88 1.449l.1.995zm15.75-3.969c2.45-.935 4.95-2.02 7.47-3.248l-.43-.9a94.617 94.617 0 01-7.39 3.214l.35.934zm14.65-7.074c2.28-1.322 4.58-2.752 6.87-4.285l-.55-.832a128.46 128.46 0 01-6.82 4.252l.5.865zm13.48-8.982c2.12-1.604 4.24-3.293 6.33-5.062l-.64-.764a145.647 145.647 0 01-6.29 5.027l.6.799zm12.39-10.455c1.95-1.83 3.88-3.731 5.77-5.699l-.72-.693a155.768 155.768 0 01-5.73 5.663l.68.729zm11.24-11.686c1.76-2.029 3.48-4.117 5.15-6.262l-.79-.615a151.125 151.125 0 01-5.12 6.221l.76.656zm9.97-12.785c1.54-2.208 3.03-4.466 4.46-6.774l-.85-.527c-1.42 2.292-2.9 4.536-4.43 6.728l.82.573zm8.54-13.786a133.55 133.55 0 003.66-7.237l-.9-.425a139.661 139.661 0 01-3.64 7.184l.88.478zm6.88-14.683c1-2.506 1.91-5.051 2.75-7.633l-.96-.307a116.88 116.88 0 01-2.72 7.572l.93.368zm4.98-15.431c.65-2.612 1.22-5.258 1.7-7.933l-.99-.174c-.47 2.652-1.03 5.274-1.68 7.865l.97.242zm2.82-15.966c.28-2.672.46-5.371.55-8.094l-1-.03c-.08 2.698-.27 5.372-.54 8.021l.99.103zm.49-16.208c-.12-2.677-.34-5.375-.67-8.091l-.99.119c.32 2.691.54 5.364.66 8.017l1-.045zm-1.93-16.12c-.51-2.622-1.13-5.259-1.84-7.907l-.97.261c.71 2.626 1.32 5.239 1.83 7.837l.98-.191zm-4.23-15.636c-.87-2.51-1.84-5.03-2.9-7.557l-.92.389c1.06 2.507 2.01 5.006 2.88 7.496l.94-.328zm-6.3-14.935a135.644 135.644 0 00-3.85-7.182l-.87.498c1.37 2.382 2.64 4.759 3.83 7.13l.89-.446zm-8.05-14.046c-.75-1.142-1.51-2.285-2.3-3.429l-.82.567c.78 1.136 1.54 2.272 2.28 3.407l.84-.545zm-2.3-3.429a24.839 24.839 0 01-2.03-3.552l-.91.426a25.908 25.908 0 002.12 3.693l.82-.567zm-4.43-11.373c-.44-2.581-.63-5.325-.59-8.211l-1-.012c-.04 2.936.15 5.742.61 8.393l.98-.17zm.05-16.503c.36-2.634.86-5.353 1.48-8.142l-.97-.218a101.58 101.58 0 00-1.5 8.225l.99.135zm3.55-16.214c.75-2.611 1.58-5.269 2.49-7.963l-.95-.317a181.07 181.07 0 00-2.5 8.005l.96.275zm5.26-15.808a330.25 330.25 0 013.01-7.779l-.93-.371c-1.05 2.617-2.06 5.22-3.01 7.801l.93.349zm6.18-15.5a682.49 682.49 0 013.28-7.676l-.91-.398a670.495 670.495 0 00-3.3 7.686l.93.388zm6.64-15.317c1.14-2.552 2.28-5.097 3.41-7.627l-.91-.408c-1.14 2.53-2.28 5.076-3.41 7.629l.91.406zm6.82-15.257c1.15-2.576 2.28-5.128 3.38-7.648l-.92-.4c-1.1 2.517-2.23 5.066-3.37 7.641l.91.407zm6.68-15.324a364.81 364.81 0 003.16-7.716l-.93-.368c-.99 2.511-2.05 5.08-3.15 7.695l.92.389zm6.13-15.576c.98-2.738 1.86-5.391 2.62-7.943l-.95-.286a155.28 155.28 0 01-2.61 7.892l.94.337zm4.7-16.101c.6-2.986.96-5.783 1.04-8.357l-1-.03c-.07 2.503-.43 5.242-1.02 8.188l.98.199zm-.06-16.762c-.5-1.396-1.17-2.663-2.03-3.786l-.8.609c.8 1.032 1.42 2.205 1.88 3.512l.95-.335zm-2.03-3.786c-.77-.99-1.68-1.943-2.74-2.858l-.66.757c1.02.878 1.89 1.782 2.6 2.71l.8-.609zm-9.31-7.201c-2.16-1.133-4.57-2.187-7.19-3.157l-.34.938c2.58.957 4.95 1.995 7.06 3.104l.47-.885zm-14.61-5.539a120.34 120.34 0 00-7.61-1.832l-.2.979c2.62.544 5.14 1.151 7.54 1.817l.27-.964zm-15.29-3.212c-2.53-.385-5.11-.715-7.73-.988l-.11.995c2.61.271 5.18.599 7.69.982l.15-.989zm-15.51-1.622c-2.58-.153-5.18-.251-7.8-.292l-.01 1c2.6.041 5.19.139 7.75.291l.06-.999zm-15.6-.243c-2.6.075-5.21.208-7.79.402l.08.998c2.56-.194 5.15-.326 7.74-.4l-.03-1zm-15.56 1.184c-2.61.331-5.18.73-7.71 1.2l.18.983c2.51-.466 5.06-.862 7.66-1.191l-.13-.992zm-15.32 2.876c-2.59.665-5.1 1.416-7.51 2.254l.33.945a93.098 93.098 0 017.43-2.23l-.25-.969zm-14.76 5.197a56.516 56.516 0 00-6.85 3.808l.55.836a54.53 54.53 0 016.73-3.74l-.43-.904zm-13 8.694c-1.93 1.877-3.59 3.918-4.95 6.131l.86.521c1.3-2.134 2.91-4.11 4.79-5.935l-.7-.717zm-8.05 13.372c-.65 2.455-.97 5.067-.93 7.84l1-.015c-.04-2.685.27-5.206.9-7.569l-.97-.256zm.06 15.604a48.26 48.26 0 001.07 3.849l.96-.309a46.75 46.75 0 01-1.06-3.766l-.97.226zm1.07 3.849c.46 1.4.95 2.744 1.47 4.034l.92-.374c-.51-1.268-.99-2.59-1.43-3.969l-.96.309zm5.27 11.651c1.57 2.558 3.3 4.809 5.16 6.767l.72-.69c-1.81-1.904-3.5-4.098-5.03-6.6l-.85.523zm11.77 12.174a31.957 31.957 0 007.78 3.504l.29-.958a31.098 31.098 0 01-7.55-3.395l-.52.849zm16.21 4.877c2.8.11 5.65-.099 8.5-.605l-.17-.985c-2.79.495-5.57.698-8.29.591l-.04.999zm16.72-2.857c2.6-.966 5.18-2.164 7.71-3.576l-.48-.873a54.756 54.756 0 01-7.58 3.511l.35.938zm14.83-8.225a66.904 66.904 0 006.45-5.537l-.69-.717a67.723 67.723 0 01-6.36 5.455l.6.799zm12.17-11.814a72.415 72.415 0 004.94-6.903l-.85-.533a69.08 69.08 0 01-4.87 6.807l.78.629zm9.05-14.339a72.74 72.74 0 003.21-7.856l-.94-.324a72.983 72.983 0 01-3.17 7.748l.9.432zm5.49-16.032a73.523 73.523 0 001.32-8.391l-1-.098a71.57 71.57 0 01-1.29 8.277l.97.212zm1.66-16.867a76.847 76.847 0 00-.19-4.259l-1 .073c.1 1.413.17 2.814.19 4.202l1-.016zm-.19-4.259a60.309 60.309 0 01-.15-3.808l-1 .007c.01 1.295.06 2.587.15 3.874l1-.073zm.25-11.431c.28-2.502.7-5.015 1.25-7.531l-.98-.212a78.193 78.193 0 00-1.26 7.632l.99.111zm3.21-14.93c.75-2.412 1.6-4.822 2.55-7.224l-.93-.367c-.96 2.424-1.82 4.857-2.58 7.294l.96.297zm5.58-14.255c1.08-2.297 2.23-4.583 3.45-6.852l-.88-.472a134.27 134.27 0 00-3.47 6.9l.9.424zm7.24-13.526c1.31-2.19 2.67-4.358 4.08-6.5l-.84-.55a194.93 194.93 0 00-4.1 6.536l.86.514zm8.41-12.842c1.49-2.095 3.01-4.16 4.55-6.19l-.8-.605a226.2 226.2 0 00-4.56 6.216l.81.579zm9.28-12.234a305.13 305.13 0 014.91-5.914l-.76-.649a272.446 272.446 0 00-4.92 5.935l.77.628zm9.98-11.707c1.74-1.947 3.48-3.834 5.19-5.656l-.73-.684c-1.72 1.827-3.46 3.72-5.21 5.673l.75.667zm10.51-11.21c1.87-1.903 3.69-3.715 5.44-5.424l-.7-.715c-1.76 1.714-3.58 3.53-5.45 5.44l.71.7zm11-10.755c2.06-1.931 3.97-3.671 5.67-5.199l-.67-.744c-1.7 1.532-3.61 3.277-5.68 5.214l.68.73zm11.46-10.267c.93-.79 1.65-1.394 2.14-1.802.25-.203.44-.357.56-.46.07-.052.11-.091.15-.117a.124.124 0 01.03-.029c.01-.003.01-.005.01-.007V.956l-.31-.39-.31-.389c-.01.001-.01.002-.01.003 0 .002 0 .004-.01.007a.13.13 0 00-.03.03 87.888 87.888 0 00-.72.584c-.49.41-1.22 1.018-2.15 1.81l.65.762z" fill="#F78383"/></svg>