<svg width="25" height="25" fill="none" xmlns="http://www.w3.org/2000/svg"><g clip-path="url(#clip0_991_3079)" stroke="#000" stroke-miterlimit="10"><path d="M17.922 23.417H7.966a5.689 5.689 0 01-5.689-5.689V7.773a5.689 5.689 0 015.69-5.689h9.955a5.689 5.689 0 015.689 5.689v9.955a5.689 5.689 0 01-5.69 5.69z" stroke-width="1.2"/><path d="M12.943 17.729a4.978 4.978 0 100-9.956 4.978 4.978 0 000 9.956z" stroke-width="1.2"/><path d="M19.344 7.06a.711.711 0 100-1.421.711.711 0 000 1.422z"/></g><defs><clipPath id="clip0_991_3079"><path fill="#0008fb" transform="translate(.945 .75)" d="M0 0h24v24H0z"/></clipPath></defs></svg>