<svg width="40" height="26" fill="none" xmlns="http://www.w3.org/2000/svg"><rect x=".75" y=".75" width="38.5" height="24.5" rx="12.25" stroke="#F2D125" stroke-width="1.5"/><path d="M24.93 8.756c.179-.553.961-.553 1.14 0l.867 2.666a.6.6 0 00.57.415h2.804c.581 0 .823.744.352 1.085l-2.267 1.648a.6.6 0 00-.218.67l.866 2.667c.18.553-.453 1.012-.923.67l-2.268-1.647a.6.6 0 00-.706 0l-2.268 1.648c-.47.341-1.103-.118-.923-.671l.866-2.666a.6.6 0 00-.218-.671l-2.267-1.648c-.47-.341-.229-1.085.352-1.085h2.803a.6.6 0 00.571-.415l.866-2.666zm-12.192 2.162c.816 0 1.536.15 2.16.45.624.3 1.11.738 1.458 1.314.36.564.54 1.26.54 2.088 0 .912-.192 1.698-.576 2.358-.384.66-.948 1.17-1.692 1.53-.744.348-1.656.522-2.736.522-.672 0-1.302-.06-1.89-.18a5.722 5.722 0 01-1.53-.522v-2.016c.444.24.978.438 1.602.594a7.287 7.287 0 001.764.234c.576 0 1.068-.078 1.476-.234.408-.168.72-.42.936-.756.216-.348.324-.786.324-1.314 0-.72-.228-1.266-.684-1.638-.456-.372-1.164-.558-2.124-.558-.336 0-.702.03-1.098.09-.384.06-.702.12-.954.18l-.972-.54.486-6.372h6.768v1.98h-4.77l-.27 2.97c.204-.036.444-.072.72-.108a6.603 6.603 0 011.062-.072z" fill="#F2D125"/></svg>