<svg width="27" height="27" fill="none" xmlns="http://www.w3.org/2000/svg"><path d="M24.72 3.745a1.681 1.681 0 00-1.704-.265l-19.41 7.836a1.672 1.672 0 00.085 3.124l4.187 1.456 2.27 7.503c.004.015.018.025.024.04.023.06.058.114.101.162a.531.531 0 00.245.155c.011.003.018.013.03.015h.006l.003.001a.486.486 0 00.252-.013l.027-.004a.537.537 0 00.207-.134c.007-.006.017-.008.024-.015l3.265-3.602 4.762 3.688c.29.226.647.35 1.014.35a1.68 1.68 0 001.644-1.335l3.535-17.352a1.66 1.66 0 00-.567-1.61zM11.332 17.319l-.766 3.723-1.598-5.284 7.925-4.127-5.414 5.414a.54.54 0 00-.147.274zm9.359 5.17a.585.585 0 01-.376.432.568.568 0 01-.556-.085l-5.16-3.996a.54.54 0 00-.733.065l-2.27 2.505.765-3.713 7.787-7.789a.541.541 0 00-.632-.863L8.289 14.89l-4.244-1.475a.57.57 0 01-.391-.534.577.577 0 01.362-.562l19.406-7.835a.58.58 0 01.605.093.566.566 0 01.197.56L20.691 22.49z" fill="#fff"/></svg>