<svg width="1366" height="537" viewBox="0 0 1366 537" fill="none" xmlns="http://www.w3.org/2000/svg">
<path opacity="0.5" d="M1290 126.566L1290.5 126.53L1290 126.566ZM1198 172.066L1198.48 171.912L1198 172.066ZM1293.5 313.066L1293.09 313.35L1293.5 313.066ZM1203.5 506.566L1203.65 506.088L1203.5 506.566ZM1040 534.566L1039.97 535.065L1040 534.566ZM868 482.566L867.999 483.066L868 482.566ZM728 534.566L727.997 534.066L728 534.566ZM521 490.566L521.065 490.071L521 490.566ZM161 534.566L161.036 534.068L161 534.566ZM-18.3777 508.776C-18.1065 508.828 -17.8444 508.651 -17.7924 508.38C-17.7404 508.108 -17.9181 507.846 -18.1893 507.794L-18.3777 508.776ZM-10.5807 509.237C-10.8521 509.186 -11.1134 509.364 -11.1643 509.636C-11.2152 509.907 -11.0364 510.168 -10.765 510.219L-10.5807 509.237ZM-3.16724 511.631C-2.89567 511.681 -2.63496 511.502 -2.58495 511.23C-2.53493 510.959 -2.71453 510.698 -2.98611 510.648L-3.16724 511.631ZM4.57887 512.029C4.30715 511.98 4.04699 512.161 3.99778 512.432C3.94857 512.704 4.12895 512.964 4.40068 513.013L4.57887 512.029ZM12.0092 514.38C12.2811 514.428 12.5407 514.247 12.5891 513.975C12.6375 513.703 12.4564 513.444 12.1845 513.395L12.0092 514.38ZM19.7608 514.734C19.4888 514.686 19.2296 514.868 19.182 515.14C19.1343 515.412 19.3162 515.671 19.5882 515.719L19.7608 514.734ZM27.1965 517.04C27.4687 517.087 27.7272 516.904 27.7741 516.632C27.821 516.36 27.6383 516.101 27.3662 516.054L27.1965 517.04ZM34.9816 517.354C34.7093 517.308 34.4513 517.491 34.4052 517.764C34.3592 518.036 34.5426 518.294 34.8148 518.34L34.9816 517.354ZM42.434 519.617C42.7065 519.662 42.964 519.478 43.0092 519.206C43.0544 518.933 42.8702 518.676 42.5978 518.63L42.434 519.617ZM50.1988 519.88C49.9262 519.836 49.6693 520.021 49.6249 520.293C49.5806 520.566 49.7656 520.823 50.0381 520.867L50.1988 519.88ZM57.6509 522.094C57.9236 522.137 58.1799 521.951 58.2233 521.678C58.2668 521.406 58.081 521.149 57.8083 521.106L57.6509 522.094ZM65.4241 522.306C65.1513 522.264 64.8956 522.451 64.8531 522.724C64.8106 522.996 64.9973 523.252 65.2702 523.294L65.4241 522.306ZM72.895 524.468C73.168 524.51 73.423 524.322 73.4645 524.049C73.506 523.776 73.3183 523.521 73.0453 523.48L72.895 524.468ZM80.6714 524.624C80.3982 524.584 80.144 524.773 80.1035 525.046C80.0631 525.319 80.2517 525.573 80.5249 525.614L80.6714 524.624ZM88.1597 526.728C88.433 526.767 88.6865 526.577 88.7258 526.304C88.7651 526.031 88.5753 525.777 88.302 525.738L88.1597 526.728ZM95.9372 526.818C95.6637 526.78 95.4112 526.971 95.3731 527.244C95.335 527.518 95.5259 527.77 95.7994 527.808L95.9372 526.818ZM103.444 528.853C103.718 528.89 103.97 528.698 104.006 528.424C104.043 528.15 103.851 527.899 103.577 527.862L103.444 528.853ZM111.222 528.867C110.948 528.832 110.698 529.025 110.662 529.299C110.627 529.573 110.821 529.823 111.094 529.859L111.222 528.867ZM118.751 530.821C119.025 530.854 119.274 530.659 119.308 530.385C119.341 530.111 119.146 529.862 118.872 529.828L118.751 530.821ZM126.528 530.742C126.254 530.71 126.006 530.906 125.974 531.181C125.942 531.455 126.139 531.703 126.413 531.735L126.528 530.742ZM134.083 532.596C134.358 532.626 134.604 532.427 134.634 532.153C134.664 531.878 134.466 531.631 134.191 531.602L134.083 532.596ZM141.861 532.401C141.586 532.374 141.341 532.574 141.314 532.849C141.286 533.124 141.487 533.369 141.761 533.396L141.861 532.401ZM149.448 534.127C149.723 534.152 149.966 533.949 149.991 533.674C150.016 533.399 149.813 533.156 149.538 533.131L149.448 534.127ZM157.222 533.78C156.946 533.758 156.706 533.964 156.684 534.239C156.662 534.515 156.868 534.755 157.143 534.777L157.222 533.78ZM164.999 535.339C165.275 535.356 165.513 535.147 165.53 534.871C165.548 534.596 165.338 534.358 165.063 534.341L164.999 535.339ZM172.972 534.774C172.696 534.761 172.462 534.975 172.449 535.251C172.436 535.527 172.65 535.76 172.926 535.773L172.972 534.774ZM180.902 536.068C181.178 536.076 181.408 535.859 181.416 535.583C181.423 535.306 181.206 535.076 180.93 535.069L180.902 536.068ZM188.805 535.216C188.529 535.213 188.303 535.435 188.301 535.711C188.298 535.987 188.52 536.213 188.796 536.216L188.805 535.216ZM196.811 536.213C197.087 536.21 197.308 535.984 197.306 535.708C197.303 535.432 197.077 535.21 196.801 535.213L196.811 536.213ZM204.704 535.056C204.428 535.064 204.211 535.294 204.22 535.57C204.228 535.846 204.458 536.063 204.734 536.055L204.704 535.056ZM212.692 535.737C212.968 535.724 213.18 535.489 213.166 535.213C213.152 534.937 212.918 534.725 212.642 534.739L212.692 535.737ZM220.579 534.259C220.303 534.278 220.096 534.518 220.115 534.793C220.135 535.068 220.374 535.276 220.65 535.256L220.579 534.259ZM228.542 534.615C228.817 534.59 229.019 534.347 228.994 534.072C228.969 533.797 228.726 533.594 228.451 533.619L228.542 534.615ZM236.369 532.809C236.094 532.84 235.897 533.088 235.928 533.362C235.959 533.637 236.206 533.834 236.481 533.803L236.369 532.809ZM244.385 532.827C244.659 532.791 244.851 532.539 244.815 532.265C244.778 531.992 244.526 531.799 244.253 531.836L244.385 532.827ZM252.083 530.705C251.811 530.747 251.624 531.002 251.666 531.275C251.708 531.548 251.964 531.735 252.237 531.693L252.083 530.705ZM260.09 530.395C260.362 530.348 260.544 530.088 260.496 529.816C260.449 529.544 260.19 529.363 259.918 529.41L260.09 530.395ZM267.735 527.961C267.464 528.014 267.287 528.276 267.34 528.547C267.393 528.818 267.655 528.995 267.926 528.942L267.735 527.961ZM275.713 527.347C275.983 527.289 276.155 527.023 276.098 526.753C276.04 526.483 275.774 526.311 275.504 526.369L275.713 527.347ZM283.234 524.644C282.965 524.706 282.798 524.975 282.86 525.244C282.923 525.513 283.191 525.68 283.46 525.618L283.234 524.644ZM291.204 523.759C291.472 523.692 291.636 523.421 291.569 523.153C291.503 522.885 291.232 522.722 290.964 522.788L291.204 523.759ZM298.662 520.823C298.395 520.893 298.235 521.166 298.305 521.433C298.375 521.7 298.649 521.86 298.916 521.79L298.662 520.823ZM306.593 519.728C306.859 519.655 307.016 519.38 306.943 519.114C306.87 518.847 306.595 518.691 306.328 518.764L306.593 519.728ZM313.971 516.628C313.705 516.703 313.551 516.98 313.626 517.245C313.702 517.511 313.978 517.665 314.244 517.59L313.971 516.628ZM321.881 515.391C322.147 515.314 322.299 515.037 322.222 514.771C322.145 514.506 321.867 514.354 321.602 514.431L321.881 515.391ZM329.229 512.193C328.964 512.271 328.813 512.549 328.891 512.814C328.969 513.079 329.247 513.23 329.512 513.152L329.229 512.193ZM337.132 510.897C337.396 510.818 337.547 510.54 337.469 510.275C337.391 510.01 337.112 509.859 336.848 509.938L337.132 510.897ZM344.467 507.685C344.202 507.763 344.05 508.041 344.128 508.306C344.206 508.571 344.484 508.723 344.749 508.645L344.467 507.685ZM352.375 506.417C352.64 506.341 352.793 506.063 352.716 505.798C352.639 505.533 352.362 505.38 352.097 505.457L352.375 506.417ZM359.743 503.273C359.478 503.348 359.323 503.624 359.397 503.89C359.472 504.156 359.748 504.311 360.014 504.236L359.743 503.273ZM367.665 502.124C367.932 502.052 368.089 501.777 368.017 501.511C367.945 501.244 367.671 501.086 367.404 501.159L367.665 502.124ZM375.089 499.131C374.822 499.199 374.661 499.472 374.729 499.739C374.798 500.007 375.071 500.168 375.338 500.099L375.089 499.131ZM383.041 498.18C383.309 498.115 383.475 497.845 383.41 497.577C383.345 497.308 383.075 497.143 382.807 497.208L383.041 498.18ZM390.564 495.406C390.294 495.466 390.124 495.734 390.185 496.003C390.245 496.273 390.512 496.443 390.781 496.382L390.564 495.406ZM398.542 494.726C398.813 494.671 398.987 494.407 398.932 494.137C398.877 493.866 398.613 493.691 398.343 493.746L398.542 494.726ZM406.142 492.241C405.87 492.29 405.69 492.551 405.74 492.822C405.789 493.094 406.05 493.274 406.321 493.224L406.142 492.241ZM414.14 491.884C414.413 491.84 414.598 491.584 414.555 491.311C414.511 491.038 414.254 490.853 413.982 490.897L414.14 491.884ZM421.87 489.722C421.596 489.759 421.405 490.012 421.442 490.285C421.48 490.559 421.732 490.75 422.006 490.713L421.87 489.722ZM429.872 489.723C430.146 489.692 430.343 489.444 430.312 489.17C430.28 488.895 430.033 488.698 429.758 488.73L429.872 489.723ZM437.655 487.921C437.38 487.946 437.177 488.189 437.202 488.464C437.227 488.739 437.47 488.942 437.745 488.917L437.655 487.921ZM445.667 488.293C445.942 488.274 446.151 488.036 446.132 487.76C446.114 487.485 445.875 487.276 445.6 487.295L445.667 488.293ZM453.562 486.854C453.286 486.866 453.072 487.099 453.085 487.375C453.097 487.651 453.33 487.865 453.606 487.853L453.562 486.854ZM461.501 487.598C461.777 487.592 461.996 487.364 461.99 487.087C461.985 486.811 461.756 486.592 461.48 486.598L461.501 487.598ZM469.455 486.521C469.179 486.521 468.955 486.744 468.955 487.02C468.954 487.297 469.178 487.521 469.454 487.521L469.455 486.521ZM477.393 487.621C477.669 487.627 477.898 487.409 477.904 487.133C477.911 486.857 477.692 486.628 477.416 486.621L477.393 487.621ZM485.338 486.891C485.062 486.878 484.828 487.092 484.816 487.368C484.804 487.644 485.017 487.877 485.293 487.89L485.338 486.891ZM493.279 488.328C493.555 488.346 493.792 488.137 493.81 487.862C493.828 487.586 493.62 487.348 493.344 487.33L493.279 488.328ZM501.214 487.921C500.939 487.897 500.697 488.102 500.674 488.377C500.651 488.652 500.855 488.894 501.13 488.917L501.214 487.921ZM509.059 489.666C509.334 489.694 509.579 489.495 509.608 489.22C509.636 488.945 509.437 488.699 509.162 488.671L509.059 489.666ZM517.049 489.562C516.775 489.529 516.526 489.724 516.493 489.998C516.459 490.272 516.654 490.521 516.928 490.555L517.049 489.562ZM524.959 491.622C525.232 491.662 525.487 491.473 525.527 491.2C525.567 490.927 525.378 490.673 525.105 490.633L524.959 491.622ZM533.182 491.938C532.91 491.89 532.651 492.072 532.603 492.344C532.556 492.616 532.737 492.875 533.009 492.923L533.182 491.938ZM541.012 494.428C541.283 494.482 541.546 494.306 541.601 494.035C541.655 493.765 541.479 493.501 541.208 493.447L541.012 494.428ZM549.201 495.131C548.932 495.072 548.665 495.242 548.605 495.512C548.546 495.781 548.716 496.048 548.986 496.108L549.201 495.131ZM556.933 497.935C557.202 497.999 557.471 497.833 557.536 497.565C557.6 497.296 557.434 497.027 557.165 496.962L556.933 497.935ZM565.101 498.915C564.834 498.847 564.562 499.009 564.494 499.277C564.426 499.545 564.588 499.817 564.856 499.884L565.101 498.915ZM572.747 501.93C573.014 502 573.288 501.841 573.358 501.574C573.429 501.307 573.27 501.034 573.003 500.963L572.747 501.93ZM580.885 503.088C580.619 503.016 580.344 503.172 580.271 503.439C580.198 503.705 580.354 503.98 580.621 504.053L580.885 503.088ZM588.482 506.235C588.748 506.31 589.024 506.155 589.098 505.889C589.173 505.623 589.018 505.347 588.752 505.272L588.482 506.235ZM596.608 507.496C596.342 507.42 596.066 507.574 595.99 507.84C595.914 508.105 596.068 508.382 596.334 508.458L596.608 507.496ZM604.18 510.703C604.445 510.78 604.722 510.626 604.799 510.361C604.875 510.095 604.721 509.818 604.456 509.742L604.18 510.703ZM612.299 511.994C612.034 511.918 611.757 512.072 611.681 512.337C611.605 512.602 611.758 512.879 612.023 512.955L612.299 511.994ZM619.872 515.198C620.137 515.274 620.414 515.12 620.489 514.854C620.565 514.589 620.411 514.312 620.145 514.236L619.872 515.198ZM627.998 516.453C627.732 516.378 627.456 516.534 627.381 516.799C627.307 517.065 627.462 517.341 627.728 517.416L627.998 516.453ZM635.597 519.591C635.864 519.664 636.138 519.507 636.211 519.24C636.284 518.974 636.127 518.699 635.86 518.626L635.597 519.591ZM643.737 520.74C643.47 520.67 643.197 520.829 643.126 521.096C643.056 521.363 643.215 521.637 643.482 521.707L643.737 520.74ZM651.39 523.748C651.658 523.815 651.929 523.653 651.997 523.385C652.064 523.117 651.902 522.846 651.634 522.778L651.39 523.748ZM659.556 524.721C659.287 524.657 659.018 524.823 658.954 525.092C658.89 525.36 659.056 525.63 659.324 525.694L659.556 524.721ZM667.286 527.525C667.556 527.585 667.823 527.414 667.883 527.145C667.942 526.875 667.772 526.608 667.503 526.549L667.286 527.525ZM675.476 528.239C675.205 528.185 674.941 528.36 674.886 528.63C674.832 528.901 675.007 529.165 675.278 529.219L675.476 528.239ZM683.299 530.754C683.571 530.803 683.831 530.622 683.88 530.35C683.929 530.079 683.748 529.819 683.476 529.77L683.299 530.754ZM691.516 531.117C691.243 531.074 690.988 531.261 690.946 531.534C690.904 531.807 691.091 532.063 691.364 532.105L691.516 531.117ZM699.462 533.242C699.736 533.277 699.986 533.082 700.02 532.808C700.055 532.534 699.86 532.284 699.586 532.25L699.462 533.242ZM707.68 533.139C707.405 533.113 707.162 533.315 707.136 533.59C707.11 533.865 707.312 534.109 707.587 534.135L707.68 533.139ZM715.737 534.749C716.013 534.764 716.249 534.553 716.265 534.278C716.281 534.002 716.07 533.766 715.794 533.75L715.737 534.749ZM723.934 534.048C723.658 534.044 723.431 534.264 723.427 534.54C723.422 534.816 723.643 535.043 723.919 535.048L723.934 534.048ZM731.87 534.984C732.146 534.974 732.362 534.742 732.352 534.466C732.342 534.19 732.11 533.974 731.834 533.984L731.87 534.984ZM739.379 533.471C739.105 533.499 738.904 533.744 738.932 534.019C738.96 534.294 739.205 534.494 739.48 534.466L739.379 533.471ZM747.076 533.423C747.348 533.375 747.53 533.116 747.482 532.844C747.435 532.572 747.176 532.39 746.904 532.438L747.076 533.423ZM754.31 530.84C754.043 530.909 753.882 531.181 753.951 531.449C754.02 531.716 754.293 531.877 754.56 531.808L754.31 530.84ZM761.891 529.59C762.151 529.499 762.289 529.214 762.198 528.953C762.107 528.693 761.822 528.555 761.562 528.646L761.891 529.59ZM768.598 525.862C768.345 525.974 768.231 526.27 768.343 526.522C768.455 526.775 768.751 526.888 769.003 526.777L768.598 525.862ZM775.885 523.403C776.128 523.272 776.22 522.969 776.089 522.726C775.959 522.483 775.656 522.391 775.412 522.522L775.885 523.403ZM781.978 518.719C781.743 518.865 781.671 519.173 781.817 519.408C781.962 519.642 782.27 519.715 782.505 519.569L781.978 518.719ZM788.903 515.392C789.131 515.237 789.189 514.926 789.034 514.698C788.878 514.469 788.567 514.411 788.339 514.566L788.903 515.392ZM794.567 510.195C794.343 510.356 794.291 510.668 794.452 510.893C794.612 511.117 794.925 511.169 795.149 511.008L794.567 510.195ZM801.339 506.56C801.563 506.4 801.615 506.088 801.454 505.863C801.294 505.638 800.981 505.586 800.757 505.747L801.339 506.56ZM807.008 501.368C806.78 501.524 806.72 501.835 806.876 502.063C807.031 502.291 807.342 502.351 807.57 502.195L807.008 501.368ZM813.939 498.055C814.174 497.91 814.247 497.602 814.102 497.367C813.957 497.132 813.649 497.059 813.414 497.204L813.939 498.055ZM820.046 493.39C819.803 493.52 819.71 493.823 819.84 494.066C819.969 494.31 820.272 494.403 820.516 494.273L820.046 493.39ZM827.345 490.963C827.598 490.852 827.713 490.557 827.603 490.304C827.492 490.051 827.197 489.936 826.944 490.046L827.345 490.963ZM834.072 487.273C833.811 487.363 833.671 487.647 833.76 487.908C833.85 488.17 834.134 488.309 834.395 488.22L834.072 487.273ZM841.661 486.075C841.929 486.008 842.092 485.737 842.025 485.469C841.958 485.201 841.686 485.038 841.418 485.105L841.661 486.075ZM848.914 483.548C848.642 483.593 848.458 483.851 848.504 484.123C848.549 484.396 848.807 484.58 849.079 484.534L848.914 483.548ZM856.612 483.563C856.887 483.538 857.089 483.294 857.064 483.019C857.038 482.744 856.794 482.542 856.52 482.568L856.612 483.563ZM864.133 482.115C863.857 482.123 863.639 482.353 863.647 482.629C863.655 482.905 863.885 483.123 864.161 483.115L864.133 482.115ZM872.089 483.154C872.365 483.166 872.598 482.951 872.609 482.675C872.62 482.399 872.406 482.166 872.13 482.155L872.089 483.154ZM880.359 482.791C880.084 482.76 879.837 482.957 879.806 483.232C879.775 483.506 879.972 483.754 880.247 483.785L880.359 482.791ZM888.349 484.965C888.62 485.013 888.88 484.831 888.928 484.56C888.977 484.288 888.795 484.028 888.523 483.98L888.349 484.965ZM896.599 485.649C896.33 485.586 896.061 485.753 895.998 486.022C895.935 486.29 896.101 486.559 896.37 486.623L896.599 485.649ZM904.303 488.688C904.568 488.763 904.845 488.609 904.92 488.344C904.996 488.078 904.842 487.802 904.576 487.726L904.303 488.688ZM912.455 490.142C912.192 490.056 911.91 490.199 911.824 490.462C911.738 490.724 911.881 491.006 912.143 491.092L912.455 490.142ZM919.896 493.773C920.156 493.868 920.443 493.734 920.537 493.474C920.631 493.214 920.497 492.928 920.238 492.833L919.896 493.773ZM927.942 495.745C927.685 495.644 927.395 495.771 927.294 496.028C927.193 496.285 927.32 496.575 927.577 496.676L927.942 495.745ZM935.191 499.746C935.446 499.852 935.738 499.73 935.844 499.475C935.949 499.22 935.828 498.928 935.573 498.822L935.191 499.746ZM943.155 502.021C942.901 501.912 942.607 502.029 942.499 502.283C942.39 502.537 942.507 502.831 942.761 502.94L943.155 502.021ZM950.298 506.211C950.551 506.322 950.846 506.206 950.957 505.953C951.068 505.7 950.952 505.405 950.699 505.295L950.298 506.211ZM958.227 508.604C957.974 508.492 957.679 508.607 957.567 508.86C957.456 509.113 957.571 509.408 957.824 509.519L958.227 508.604ZM965.353 512.823C965.606 512.934 965.901 512.818 966.012 512.565C966.122 512.312 966.006 512.017 965.753 511.907L965.353 512.823ZM973.298 515.163C973.044 515.055 972.75 515.173 972.642 515.427C972.534 515.682 972.652 515.975 972.906 516.083L973.298 515.163ZM980.496 519.256C980.751 519.36 981.043 519.238 981.148 518.982C981.252 518.727 981.13 518.435 980.874 518.33L980.496 519.256ZM988.506 521.366C988.249 521.267 987.959 521.395 987.86 521.653C987.761 521.91 987.889 522.2 988.147 522.299L988.506 521.366ZM995.865 525.162C996.126 525.254 996.411 525.118 996.504 524.858C996.596 524.597 996.46 524.312 996.2 524.219L995.865 525.162ZM1003.98 526.84C1003.71 526.756 1003.43 526.902 1003.35 527.165C1003.26 527.428 1003.41 527.709 1003.67 527.793L1003.98 526.84ZM1011.57 530.133C1011.84 530.206 1012.11 530.049 1012.19 529.783C1012.26 529.517 1012.1 529.242 1011.84 529.169L1011.57 530.133ZM1019.79 531.143C1019.52 531.083 1019.25 531.253 1019.19 531.523C1019.14 531.792 1019.31 532.059 1019.57 532.119L1019.79 531.143ZM1027.67 533.68C1027.95 533.724 1028.2 533.539 1028.25 533.267C1028.29 532.994 1028.11 532.737 1027.83 532.693L1027.67 533.68ZM1035.95 533.748C1035.68 533.722 1035.43 533.923 1035.41 534.198C1035.38 534.473 1035.58 534.717 1035.86 534.743L1035.95 533.748ZM1043.97 535.218C1044.24 535.223 1044.47 535.002 1044.47 534.726C1044.48 534.45 1044.26 534.223 1043.98 534.218L1043.97 535.218ZM1051.77 533.961C1051.49 533.985 1051.29 534.227 1051.31 534.502C1051.34 534.777 1051.58 534.981 1051.85 534.958L1051.77 533.961ZM1059.7 533.845C1059.97 533.791 1060.15 533.527 1060.09 533.256C1060.04 532.986 1059.77 532.81 1059.5 532.865L1059.7 533.845ZM1067.04 530.862C1066.78 530.949 1066.64 531.232 1066.72 531.494C1066.81 531.757 1067.09 531.899 1067.35 531.812L1067.04 530.862ZM1074.71 528.892C1074.96 528.776 1075.07 528.479 1074.95 528.229C1074.83 527.978 1074.54 527.869 1074.29 527.985L1074.71 528.892ZM1081.22 524.375C1080.98 524.513 1080.9 524.819 1081.03 525.058C1081.17 525.297 1081.48 525.38 1081.72 525.242L1081.22 524.375ZM1088.44 521.103C1088.67 520.953 1088.73 520.643 1088.58 520.412C1088.43 520.18 1088.12 520.114 1087.89 520.265L1088.44 521.103ZM1094.44 515.916C1094.21 516.07 1094.15 516.38 1094.3 516.609C1094.45 516.839 1094.77 516.9 1094.99 516.747L1094.44 515.916ZM1101.56 512.435C1101.79 512.287 1101.86 511.978 1101.71 511.745C1101.56 511.512 1101.26 511.443 1101.02 511.591L1101.56 512.435ZM1107.79 507.537C1107.55 507.671 1107.46 507.976 1107.6 508.217C1107.73 508.458 1108.04 508.545 1108.28 508.41L1107.79 507.537ZM1115.25 504.882C1115.5 504.769 1115.61 504.472 1115.5 504.221C1115.39 503.969 1115.09 503.858 1114.84 503.971L1115.25 504.882ZM1122.19 501.059C1121.93 501.147 1121.79 501.431 1121.88 501.693C1121.97 501.954 1122.25 502.094 1122.52 502.005L1122.19 501.059ZM1130.03 499.867C1130.3 499.804 1130.47 499.536 1130.41 499.267C1130.35 498.998 1130.08 498.83 1129.81 498.892L1130.03 499.867ZM1137.58 497.488C1137.3 497.524 1137.11 497.775 1137.15 498.049C1137.18 498.323 1137.43 498.515 1137.71 498.479L1137.58 497.488ZM1145.49 497.784C1145.77 497.771 1145.98 497.537 1145.97 497.261C1145.96 496.985 1145.72 496.772 1145.45 496.786L1145.49 497.784ZM1153.37 496.707C1153.1 496.7 1152.87 496.918 1152.86 497.194C1152.85 497.47 1153.07 497.7 1153.35 497.707L1153.37 496.707ZM1161.17 498.16C1161.45 498.184 1161.69 497.981 1161.72 497.706C1161.74 497.431 1161.54 497.188 1161.26 497.164L1161.17 498.16ZM1169.09 498.069C1168.82 498.03 1168.56 498.221 1168.52 498.494C1168.49 498.767 1168.68 499.02 1168.95 499.059L1169.09 498.069ZM1176.69 500.338C1176.97 500.389 1177.23 500.211 1177.28 499.939C1177.33 499.668 1177.15 499.407 1176.88 499.356L1176.69 500.338ZM1184.62 500.966C1184.35 500.904 1184.08 501.073 1184.02 501.342C1183.96 501.612 1184.13 501.879 1184.4 501.941L1184.62 500.966ZM1191.97 503.799C1192.24 503.869 1192.51 503.709 1192.58 503.442C1192.65 503.175 1192.49 502.902 1192.23 502.832L1191.97 503.799ZM1199.78 504.93C1199.52 504.852 1199.24 505.004 1199.16 505.269C1199.09 505.534 1199.24 505.812 1199.5 505.89L1199.78 504.93ZM1207.38 507.911C1207.65 507.948 1207.9 507.755 1207.94 507.482C1207.98 507.208 1207.78 506.957 1207.51 506.92L1207.38 507.911ZM1215.43 506.979C1215.15 507.006 1214.95 507.251 1214.98 507.526C1215.01 507.801 1215.25 508.001 1215.53 507.974L1215.43 506.979ZM1223.56 506.498C1223.82 506.429 1223.98 506.156 1223.91 505.889C1223.85 505.621 1223.57 505.461 1223.31 505.53L1223.56 506.498ZM1230.93 503.071C1230.67 503.17 1230.54 503.459 1230.64 503.717C1230.74 503.975 1231.03 504.104 1231.28 504.005L1230.93 503.071ZM1238.75 500.757C1239 500.636 1239.11 500.337 1238.98 500.088C1238.86 499.84 1238.56 499.737 1238.32 499.857L1238.75 500.757ZM1245.43 496.066C1245.19 496.204 1245.11 496.51 1245.25 496.749C1245.39 496.988 1245.69 497.069 1245.93 496.931L1245.43 496.066ZM1252.8 492.646C1253.03 492.492 1253.1 492.182 1252.94 491.952C1252.79 491.723 1252.48 491.661 1252.25 491.814L1252.8 492.646ZM1258.81 487.15C1258.59 487.317 1258.54 487.63 1258.71 487.851C1258.88 488.071 1259.19 488.115 1259.41 487.949L1258.81 487.15ZM1265.74 482.887C1265.96 482.709 1265.98 482.393 1265.8 482.182C1265.63 481.971 1265.31 481.945 1265.1 482.123L1265.74 482.887ZM1271.12 476.765C1270.92 476.954 1270.91 477.271 1271.09 477.472C1271.28 477.673 1271.6 477.683 1271.8 477.494L1271.12 476.765ZM1277.57 471.795C1277.76 471.596 1277.76 471.28 1277.56 471.088C1277.36 470.897 1277.04 470.903 1276.85 471.102L1277.57 471.795ZM1282.28 465.152C1282.1 465.361 1282.13 465.677 1282.33 465.858C1282.54 466.039 1282.86 466.016 1283.04 465.808L1282.28 465.152ZM1288.19 459.546C1288.36 459.328 1288.32 459.014 1288.11 458.844C1287.89 458.674 1287.57 458.713 1287.4 458.931L1288.19 459.546ZM1292.19 452.45C1292.03 452.677 1292.09 452.988 1292.31 453.146C1292.54 453.305 1292.85 453.249 1293.01 453.023L1292.19 452.45ZM1297.47 446.249C1297.62 446.014 1297.54 445.706 1297.31 445.561C1297.08 445.415 1296.77 445.488 1296.62 445.722L1297.47 446.249ZM1300.67 438.759C1300.54 439.002 1300.63 439.306 1300.87 439.438C1301.11 439.57 1301.42 439.48 1301.55 439.237L1300.67 438.759ZM1305.21 432C1305.33 431.75 1305.22 431.452 1304.97 431.335C1304.72 431.218 1304.42 431.325 1304.31 431.575L1305.21 432ZM1307.5 424.186C1307.4 424.443 1307.53 424.734 1307.78 424.835C1308.04 424.937 1308.33 424.811 1308.43 424.554L1307.5 424.186ZM1311.18 416.921C1311.26 416.659 1311.12 416.377 1310.85 416.292C1310.59 416.207 1310.31 416.351 1310.22 416.614L1311.18 416.921ZM1312.44 408.881C1312.37 409.149 1312.54 409.42 1312.8 409.487C1313.07 409.554 1313.34 409.391 1313.41 409.123L1312.44 408.881ZM1315.11 401.19C1315.15 400.919 1314.97 400.659 1314.7 400.611C1314.43 400.563 1314.17 400.744 1314.12 401.016L1315.11 401.19ZM1315.24 393.054C1315.21 393.329 1315.41 393.574 1315.69 393.603C1315.96 393.632 1316.21 393.432 1316.23 393.157L1315.24 393.054ZM1316.78 385.063C1316.78 384.787 1316.57 384.557 1316.29 384.548C1316.01 384.54 1315.78 384.757 1315.78 385.033L1316.78 385.063ZM1315.72 376.994C1315.73 377.27 1315.96 377.484 1316.24 377.471C1316.51 377.459 1316.73 377.225 1316.72 376.949L1315.72 376.994ZM1316.05 368.858C1316.02 368.584 1315.77 368.388 1315.5 368.421C1315.22 368.454 1315.03 368.703 1315.06 368.977L1316.05 368.858ZM1313.81 361.02C1313.86 361.291 1314.12 361.468 1314.39 361.415C1314.67 361.362 1314.84 361.1 1314.79 360.829L1313.81 361.02ZM1312.95 352.922C1312.88 352.655 1312.6 352.497 1312.33 352.57C1312.07 352.642 1311.91 352.917 1311.98 353.183L1312.95 352.922ZM1309.62 345.521C1309.71 345.782 1309.99 345.92 1310.25 345.83C1310.51 345.739 1310.65 345.454 1310.56 345.193L1309.62 345.521ZM1307.66 337.636C1307.55 337.381 1307.26 337.262 1307 337.37C1306.75 337.477 1306.63 337.771 1306.74 338.025L1307.66 337.636ZM1303.37 330.704C1303.49 330.951 1303.79 331.051 1304.04 330.928C1304.28 330.805 1304.38 330.505 1304.26 330.258L1303.37 330.704ZM1300.41 323.076C1300.27 322.836 1299.96 322.754 1299.72 322.891C1299.49 323.029 1299.4 323.334 1299.54 323.574L1300.41 323.076ZM1295.37 316.757C1295.52 316.988 1295.83 317.054 1296.06 316.904C1296.29 316.753 1296.36 316.444 1296.21 316.212L1295.37 316.757ZM1291.88 309.231C1291.76 308.981 1291.46 308.874 1291.21 308.991C1290.96 309.109 1290.86 309.407 1290.97 309.657L1291.88 309.231ZM1288.5 301.58C1288.54 301.852 1288.8 302.035 1289.08 301.988C1289.35 301.941 1289.53 301.682 1289.48 301.41L1288.5 301.58ZM1288.89 293.199C1288.89 292.923 1288.67 292.697 1288.39 292.693C1288.12 292.69 1287.89 292.911 1287.89 293.187L1288.89 293.199ZM1288.54 284.772C1288.51 285.046 1288.7 285.298 1288.97 285.335C1289.24 285.372 1289.5 285.181 1289.53 284.907L1288.54 284.772ZM1291.01 276.765C1291.07 276.495 1290.9 276.228 1290.63 276.168C1290.36 276.108 1290.1 276.278 1290.04 276.547L1291.01 276.765ZM1292.12 268.418C1292.04 268.683 1292.2 268.96 1292.46 269.036C1292.73 269.112 1293.01 268.959 1293.08 268.693L1292.12 268.418ZM1295.57 260.73C1295.65 260.468 1295.51 260.185 1295.25 260.097C1294.99 260.01 1294.7 260.151 1294.62 260.413L1295.57 260.73ZM1297.41 252.536C1297.31 252.795 1297.44 253.083 1297.7 253.179C1297.96 253.275 1298.25 253.143 1298.34 252.885L1297.41 252.536ZM1301.35 245.106C1301.45 244.849 1301.32 244.558 1301.07 244.456C1300.81 244.353 1300.52 244.478 1300.42 244.735L1301.35 245.106ZM1303.59 236.997C1303.49 237.252 1303.61 237.545 1303.86 237.652C1304.12 237.759 1304.41 237.639 1304.52 237.385L1303.59 236.997ZM1307.8 229.709C1307.91 229.456 1307.8 229.162 1307.54 229.051C1307.29 228.941 1307 229.057 1306.89 229.311L1307.8 229.709ZM1310.25 221.662C1310.14 221.915 1310.25 222.21 1310.5 222.322C1310.76 222.434 1311.05 222.321 1311.16 222.068L1310.25 221.662ZM1314.57 214.441C1314.68 214.189 1314.57 213.894 1314.32 213.781C1314.06 213.668 1313.77 213.781 1313.66 214.033L1314.57 214.441ZM1317.07 206.404C1316.95 206.656 1317.07 206.951 1317.32 207.064C1317.57 207.176 1317.87 207.063 1317.98 206.811L1317.07 206.404ZM1321.36 199.163C1321.47 198.91 1321.36 198.615 1321.1 198.505C1320.85 198.394 1320.55 198.51 1320.44 198.763L1321.36 199.163ZM1323.74 191.098C1323.63 191.353 1323.75 191.646 1324.01 191.753C1324.26 191.861 1324.55 191.741 1324.66 191.487L1323.74 191.098ZM1327.82 183.771C1327.92 183.514 1327.8 183.224 1327.54 183.122C1327.29 183.02 1326.99 183.146 1326.89 183.403L1327.82 183.771ZM1329.85 175.574C1329.76 175.834 1329.9 176.12 1330.16 176.213C1330.42 176.306 1330.7 176.171 1330.79 175.911L1329.85 175.574ZM1333.41 167.968C1333.49 167.703 1333.34 167.425 1333.08 167.346C1332.81 167.267 1332.53 167.417 1332.46 167.682L1333.41 167.968ZM1334.51 159.611C1334.45 159.882 1334.63 160.146 1334.9 160.201C1335.17 160.255 1335.43 160.08 1335.49 159.81L1334.51 159.611ZM1336.53 151.453C1336.54 151.177 1336.32 150.946 1336.05 150.938C1335.77 150.93 1335.54 151.147 1335.53 151.423L1336.53 151.453ZM1334.48 143.383C1334.58 143.643 1334.86 143.779 1335.12 143.686C1335.38 143.594 1335.52 143.308 1335.43 143.048L1334.48 143.383ZM1330.66 136.404C1330.45 136.224 1330.13 136.247 1329.95 136.456C1329.77 136.665 1329.79 136.981 1330 137.161L1330.66 136.404ZM1323.62 132.946C1323.87 133.074 1324.17 132.98 1324.3 132.735C1324.43 132.491 1324.33 132.189 1324.09 132.061L1323.62 132.946ZM1316.9 128.904C1316.64 128.808 1316.36 128.94 1316.26 129.199C1316.16 129.458 1316.3 129.746 1316.56 129.842L1316.9 128.904ZM1309.21 127.486C1309.48 127.56 1309.75 127.404 1309.83 127.137C1309.9 126.871 1309.74 126.596 1309.48 126.522L1309.21 127.486ZM1301.87 124.69C1301.6 124.634 1301.34 124.807 1301.28 125.078C1301.23 125.348 1301.4 125.613 1301.67 125.669L1301.87 124.69ZM1294.04 124.299C1294.31 124.34 1294.56 124.153 1294.6 123.88C1294.65 123.607 1294.46 123.352 1294.19 123.31L1294.04 124.299ZM1286.46 122.322C1286.18 122.293 1285.94 122.493 1285.91 122.767C1285.88 123.042 1286.08 123.288 1286.35 123.317L1286.46 122.322ZM1278.62 122.687C1278.9 122.703 1279.13 122.493 1279.15 122.217C1279.17 121.941 1278.96 121.705 1278.68 121.688L1278.62 122.687ZM1270.88 121.396C1270.61 121.392 1270.38 121.612 1270.38 121.888C1270.37 122.164 1270.59 122.392 1270.87 122.396L1270.88 121.396ZM1263.11 122.445C1263.39 122.437 1263.61 122.207 1263.6 121.931C1263.59 121.655 1263.36 121.437 1263.08 121.445L1263.11 122.445ZM1255.29 121.847C1255.02 121.868 1254.81 122.108 1254.83 122.384C1254.85 122.659 1255.09 122.865 1255.37 122.845L1255.29 121.847ZM1247.65 123.621C1247.92 123.586 1248.12 123.336 1248.08 123.062C1248.05 122.788 1247.8 122.594 1247.52 122.629L1247.65 123.621ZM1239.81 123.829C1239.54 123.879 1239.36 124.14 1239.41 124.412C1239.46 124.683 1239.72 124.862 1239.99 124.812L1239.81 123.829ZM1232.45 126.474C1232.72 126.405 1232.88 126.132 1232.81 125.865C1232.74 125.597 1232.47 125.436 1232.2 125.505L1232.45 126.474ZM1224.69 127.759C1224.43 127.85 1224.29 128.135 1224.39 128.396C1224.48 128.657 1224.76 128.795 1225.02 128.704L1224.69 127.759ZM1217.87 131.606C1218.12 131.489 1218.23 131.191 1218.11 130.941C1217.99 130.691 1217.69 130.584 1217.44 130.702L1217.87 131.606ZM1210.59 134.51C1210.36 134.662 1210.3 134.972 1210.45 135.202C1210.6 135.433 1210.91 135.498 1211.14 135.346L1210.59 134.51ZM1205.14 140.113C1205.34 139.921 1205.34 139.604 1205.15 139.406C1204.96 139.208 1204.64 139.203 1204.44 139.396L1205.14 140.113ZM1199.49 145.527C1199.35 145.762 1199.42 146.07 1199.66 146.214C1199.89 146.358 1200.2 146.284 1200.35 146.048L1199.49 145.527ZM1197.36 153.024C1197.43 152.757 1197.27 152.483 1197 152.413C1196.73 152.342 1196.46 152.501 1196.39 152.768L1197.36 153.024ZM1195.46 160.608C1195.46 160.884 1195.69 161.105 1195.97 161.101C1196.24 161.097 1196.46 160.869 1196.46 160.593L1195.46 160.608ZM1197.42 168.146C1197.36 167.877 1197.09 167.709 1196.82 167.772C1196.55 167.834 1196.39 168.103 1196.45 168.372L1197.42 168.146ZM1198.99 176.255C1199.09 176.511 1199.38 176.635 1199.64 176.532C1199.89 176.428 1200.02 176.137 1199.91 175.881L1198.99 176.255ZM1203.64 183.349C1203.5 183.114 1203.19 183.04 1202.95 183.184C1202.72 183.329 1202.64 183.636 1202.79 183.872L1203.64 183.349ZM1207.95 190.639C1208.14 190.839 1208.46 190.847 1208.66 190.656C1208.86 190.466 1208.86 190.149 1208.67 189.949L1207.95 190.639ZM1215.08 195.197C1214.85 195.051 1214.54 195.122 1214.4 195.357C1214.25 195.591 1214.32 195.9 1214.56 196.046L1215.08 195.197ZM1222.34 199.55C1222.61 199.629 1222.89 199.478 1222.97 199.214C1223.04 198.949 1222.89 198.671 1222.63 198.592L1222.34 199.55ZM1230.81 199.924C1230.53 199.913 1230.3 200.128 1230.29 200.404C1230.28 200.68 1230.49 200.913 1230.77 200.923L1230.81 199.924ZM1239.27 200.318C1239.55 200.27 1239.73 200.011 1239.68 199.739C1239.63 199.467 1239.37 199.285 1239.1 199.333L1239.27 200.318ZM1247.14 197.128C1246.88 197.224 1246.75 197.512 1246.84 197.771C1246.94 198.03 1247.23 198.162 1247.49 198.066L1247.14 197.128ZM1255.2 194.49C1255.45 194.355 1255.53 194.051 1255.4 193.809C1255.26 193.568 1254.96 193.482 1254.72 193.617L1255.2 194.49ZM1261.72 189.042C1261.5 189.208 1261.46 189.522 1261.62 189.742C1261.79 189.963 1262.1 190.007 1262.32 189.841L1261.72 189.042ZM1268.77 184.304C1268.97 184.111 1268.97 183.795 1268.78 183.597C1268.59 183.399 1268.27 183.394 1268.08 183.587L1268.77 184.304ZM1273.71 177.398C1273.54 177.613 1273.57 177.928 1273.79 178.101C1274 178.275 1274.32 178.241 1274.49 178.027L1273.71 177.398ZM1279.43 171.124C1279.58 170.891 1279.51 170.582 1279.27 170.435C1279.04 170.287 1278.73 170.357 1278.58 170.591L1279.43 171.124ZM1282.64 163.256C1282.52 163.505 1282.62 163.804 1282.87 163.923C1283.12 164.043 1283.42 163.937 1283.54 163.688L1282.64 163.256ZM1286.75 155.832C1286.84 155.571 1286.7 155.286 1286.44 155.197C1286.18 155.107 1285.9 155.246 1285.81 155.508L1286.75 155.832ZM1288.06 147.444C1288 147.714 1288.17 147.98 1288.44 148.039C1288.71 148.097 1288.97 147.926 1289.03 147.656L1288.06 147.444ZM1290.35 139.265C1290.37 138.99 1290.17 138.745 1289.9 138.718C1289.62 138.692 1289.38 138.893 1289.35 139.167L1290.35 139.265ZM1289.69 130.805C1289.69 131.081 1289.92 131.301 1290.2 131.297C1290.47 131.292 1290.69 131.065 1290.69 130.789L1289.69 130.805ZM1290.35 122.722C1290.34 122.446 1290.12 122.224 1289.84 122.226C1289.57 122.228 1289.34 122.453 1289.35 122.729L1290.35 122.722ZM1289.76 114.988C1289.73 115.262 1289.93 115.51 1290.2 115.54C1290.48 115.571 1290.72 115.374 1290.75 115.099L1289.76 114.988ZM1292 107.568C1292.06 107.298 1291.89 107.032 1291.62 106.973C1291.35 106.915 1291.08 107.086 1291.02 107.356L1292 107.568ZM1293 99.8723C1292.92 100.136 1293.07 100.416 1293.33 100.498C1293.6 100.58 1293.88 100.433 1293.96 100.169L1293 99.8723ZM1296.51 92.9446C1296.61 92.6877 1296.48 92.3973 1296.22 92.2962C1295.97 92.195 1295.68 92.3212 1295.58 92.5782L1296.51 92.9446ZM1298.64 85.4896C1298.52 85.7397 1298.63 86.0374 1298.88 86.1545C1299.13 86.2717 1299.42 86.164 1299.54 85.914L1298.64 85.4896ZM1302.99 79.0624C1303.12 78.8191 1303.03 78.516 1302.78 78.3854C1302.54 78.2549 1302.24 78.3463 1302.11 78.5896L1302.99 79.0624ZM1305.92 71.8743C1305.78 72.1113 1305.86 72.4183 1306.09 72.5602C1306.33 72.702 1306.64 72.625 1306.78 72.3881L1305.92 71.8743ZM1310.86 65.8871C1311.01 65.6562 1310.95 65.3463 1310.72 65.1948C1310.48 65.0433 1310.17 65.1076 1310.02 65.3385L1310.86 65.8871ZM1314.38 58.9673C1314.22 59.1925 1314.27 59.5046 1314.49 59.6644C1314.72 59.8242 1315.03 59.7712 1315.19 59.546L1314.38 58.9673ZM1319.74 53.3558C1319.91 53.1359 1319.86 52.8223 1319.64 52.6552C1319.42 52.4882 1319.11 52.531 1318.94 52.7509L1319.74 53.3558ZM1323.7 46.6839C1323.52 46.8988 1323.56 47.2136 1323.77 47.387C1323.99 47.5604 1324.3 47.5268 1324.47 47.3119L1323.7 46.6839ZM1329.38 41.3979C1329.56 41.1878 1329.54 40.8722 1329.33 40.693C1329.12 40.5139 1328.8 40.539 1328.62 40.7492L1329.38 41.3979ZM1333.7 34.938C1333.52 35.1437 1333.53 35.4598 1333.74 35.6441C1333.95 35.8284 1334.26 35.811 1334.45 35.6054L1333.7 34.938ZM1339.64 29.9489C1339.82 29.7476 1339.81 29.4312 1339.61 29.2422C1339.41 29.0532 1339.09 29.0632 1338.91 29.2646L1339.64 29.9489ZM1344.25 23.6955C1344.06 23.8927 1344.06 24.2092 1344.26 24.4026C1344.45 24.5959 1344.77 24.5928 1344.96 24.3957L1344.25 23.6955ZM1350.4 18.9709C1350.59 18.7778 1350.6 18.4612 1350.4 18.2638C1350.21 18.0663 1349.9 18.0628 1349.7 18.2558L1350.4 18.9709ZM1355.28 12.911C1355.08 13.0999 1355.07 13.4163 1355.26 13.6177C1355.45 13.8192 1355.76 13.8294 1355.96 13.6405L1355.28 12.911ZM1361.63 8.44132C1361.84 8.25688 1361.85 7.94075 1361.67 7.73524C1361.48 7.52973 1361.17 7.51264 1360.96 7.69708L1361.63 8.44132ZM1366.77 2.61122C1366.56 2.79028 1366.54 3.10585 1366.71 3.31608C1366.89 3.5263 1367.21 3.55157 1367.42 3.37251L1366.77 2.61122ZM-22 507.566C-22.0964 508.057 -22.0964 508.057 -22.0964 508.057C-22.0964 508.057 -22.0964 508.057 -22.0963 508.057C-22.0963 508.057 -22.0962 508.057 -22.0962 508.057C-22.096 508.057 -22.0958 508.057 -22.0954 508.057C-22.0948 508.057 -22.0938 508.058 -22.0925 508.058C-22.09 508.058 -22.0862 508.059 -22.0811 508.06C-22.0709 508.062 -22.0557 508.065 -22.0355 508.069C-21.9951 508.077 -21.9347 508.089 -21.8547 508.104C-21.6947 508.136 -21.4563 508.182 -21.1424 508.243C-20.5147 508.365 -19.5851 508.545 -18.3777 508.776L-18.1893 507.794C-19.396 507.563 -20.3247 507.383 -20.9517 507.261C-21.2652 507.201 -21.5033 507.154 -21.6629 507.123C-21.7427 507.107 -21.8029 507.096 -21.8432 507.088C-21.8633 507.084 -21.8784 507.081 -21.8885 507.079C-21.8935 507.078 -21.8973 507.077 -21.8998 507.077C-21.9011 507.076 -21.902 507.076 -21.9027 507.076C-21.903 507.076 -21.9032 507.076 -21.9034 507.076C-21.9034 507.076 -21.9035 507.076 -21.9035 507.076C-21.9035 507.076 -21.9036 507.076 -21.9036 507.076C-21.9036 507.076 -21.9036 507.076 -22 507.566ZM-10.765 510.219C-8.51939 510.641 -5.97587 511.114 -3.16724 511.631L-2.98611 510.648C-5.79362 510.131 -8.33607 509.658 -10.5807 509.237L-10.765 510.219ZM4.40068 513.013C6.80907 513.45 9.34978 513.906 12.0092 514.38L12.1845 513.395C9.52612 512.922 6.98636 512.465 4.57887 512.029L4.40068 513.013ZM19.5882 515.719C22.0488 516.15 24.5878 516.591 27.1965 517.04L27.3662 516.054C24.7585 515.605 22.2204 515.164 19.7608 514.734L19.5882 515.719ZM34.8148 518.34C37.3056 518.761 39.8475 519.188 42.434 519.617L42.5978 518.63C40.0124 518.201 37.4715 517.775 34.9816 517.354L34.8148 518.34ZM50.0381 520.867C52.5437 521.275 55.0831 521.684 57.6509 522.094L57.8083 521.106C55.2416 520.697 52.7033 520.288 50.1988 519.88L50.0381 520.867ZM65.2702 523.294C67.792 523.688 70.3352 524.079 72.895 524.468L73.0453 523.48C70.4868 523.091 67.9448 522.699 65.4241 522.306L65.2702 523.294ZM80.5249 525.614C83.06 525.989 85.6065 526.361 88.1597 526.728L88.302 525.738C85.7502 525.371 83.2051 524.999 80.6714 524.624L80.5249 525.614ZM95.7994 527.808C98.3469 528.163 100.897 528.512 103.444 528.853L103.577 527.862C101.031 527.521 98.4832 527.172 95.9372 526.818L95.7994 527.808ZM111.094 529.859C113.655 530.188 116.208 530.509 118.751 530.821L118.872 529.828C116.332 529.517 113.781 529.196 111.222 528.867L111.094 529.859ZM126.413 531.735C128.988 532.034 131.547 532.321 134.083 532.596L134.191 531.602C131.657 531.327 129.101 531.04 126.528 530.742L126.413 531.735ZM141.761 533.396C144.355 533.655 146.919 533.899 149.448 534.127L149.538 533.131C147.012 532.904 144.451 532.66 141.861 532.401L141.761 533.396ZM157.143 534.777C158.428 534.878 159.702 534.974 160.964 535.065L161.036 534.068C159.776 533.977 158.504 533.881 157.222 533.78L157.143 534.777ZM160.964 535.065C162.317 535.163 163.662 535.254 164.999 535.339L165.063 534.341C163.729 534.256 162.386 534.165 161.036 534.068L160.964 535.065ZM172.926 535.773C175.617 535.897 178.275 535.995 180.902 536.068L180.93 535.069C178.309 534.996 175.657 534.898 172.972 534.774L172.926 535.773ZM188.796 536.216C191.501 536.241 194.172 536.24 196.811 536.213L196.801 535.213C194.169 535.24 191.504 535.241 188.805 535.216L188.796 536.216ZM204.734 536.055C207.42 535.975 210.072 535.869 212.692 535.737L212.642 534.739C210.029 534.87 207.384 534.976 204.704 535.056L204.734 536.055ZM220.65 535.256C223.313 535.068 225.943 534.853 228.542 534.615L228.451 533.619C225.859 533.857 223.236 534.071 220.579 534.259L220.65 535.256ZM236.481 533.803C239.148 533.502 241.782 533.176 244.385 532.827L244.253 531.836C241.656 532.184 239.029 532.509 236.369 532.809L236.481 533.803ZM252.237 531.693C254.885 531.283 257.502 530.849 260.09 530.395L259.918 529.41C257.335 529.863 254.725 530.295 252.083 530.705L252.237 531.693ZM267.926 528.942C270.549 528.43 273.144 527.897 275.713 527.347L275.504 526.369C272.94 526.918 270.351 527.45 267.735 527.961L267.926 528.942ZM283.46 525.618C286.065 525.014 288.645 524.394 291.204 523.759L290.964 522.788C288.409 523.422 285.833 524.041 283.234 524.644L283.46 525.618ZM298.916 521.79C301.492 521.114 304.05 520.426 306.593 519.728L306.328 518.764C303.789 519.461 301.235 520.148 298.662 520.823L298.916 521.79ZM314.244 517.59C316.801 516.863 319.346 516.129 321.881 515.391L321.602 514.431C319.068 515.169 316.526 515.902 313.971 516.628L314.244 517.59ZM329.512 513.152C332.057 512.401 334.596 511.648 337.132 510.897L336.848 509.938C334.311 510.689 331.773 511.442 329.229 512.193L329.512 513.152ZM344.749 508.645C347.289 507.897 349.829 507.154 352.375 506.417L352.097 505.457C349.55 506.194 347.008 506.938 344.467 507.685L344.749 508.645ZM360.014 504.236C362.555 503.521 365.105 502.816 367.665 502.124L367.404 501.159C364.84 501.852 362.287 502.558 359.743 503.273L360.014 504.236ZM375.338 500.099C377.89 499.444 380.457 498.803 383.041 498.18L382.807 497.208C380.217 497.832 377.646 498.474 375.089 499.131L375.338 500.099ZM390.781 496.382C393.347 495.81 395.933 495.257 398.542 494.726L398.343 493.746C395.727 494.278 393.135 494.833 390.564 495.406L390.781 496.382ZM406.321 493.224C408.902 492.754 411.507 492.306 414.14 491.884L413.982 490.897C411.342 491.32 408.729 491.769 406.142 492.241L406.321 493.224ZM422.006 490.713C424.599 490.356 427.22 490.026 429.872 489.723L429.758 488.73C427.099 489.033 424.47 489.365 421.87 489.722L422.006 490.713ZM437.745 488.917C440.354 488.681 442.994 488.472 445.667 488.293L445.6 487.295C442.919 487.475 440.272 487.684 437.655 487.921L437.745 488.917ZM453.606 487.853C456.205 487.739 458.836 487.654 461.501 487.598L461.48 486.598C458.808 486.654 456.169 486.74 453.562 486.854L453.606 487.853ZM469.454 487.521C472.067 487.525 474.713 487.558 477.393 487.621L477.416 486.621C474.729 486.558 472.076 486.525 469.455 486.521L469.454 487.521ZM485.293 487.89C487.922 488.007 490.583 488.152 493.279 488.328L493.344 487.33C490.642 487.154 487.973 487.008 485.338 486.891L485.293 487.89ZM501.13 488.917C503.741 489.139 506.383 489.388 509.059 489.666L509.162 488.671C506.48 488.392 503.831 488.143 501.214 487.921L501.13 488.917ZM516.928 490.555C518.256 490.717 519.591 490.886 520.935 491.062L521.065 490.071C519.718 489.894 518.38 489.725 517.049 489.562L516.928 490.555ZM520.935 491.062C522.272 491.237 523.613 491.424 524.959 491.622L525.105 490.633C523.754 490.434 522.407 490.247 521.065 490.071L520.935 491.062ZM533.009 492.923C535.661 493.388 538.33 493.891 541.012 494.428L541.208 493.447C538.518 492.909 535.843 492.405 533.182 491.938L533.009 492.923ZM548.986 496.108C551.623 496.69 554.272 497.301 556.933 497.935L557.165 496.962C554.499 496.327 551.844 495.715 549.201 495.131L548.986 496.108ZM564.856 499.884C567.477 500.548 570.108 501.231 572.747 501.93L573.003 500.963C570.361 500.263 567.727 499.579 565.101 498.915L564.856 499.884ZM580.621 504.053C583.235 504.769 585.855 505.498 588.482 506.235L588.752 505.272C586.124 504.534 583.501 503.805 580.885 503.088L580.621 504.053ZM596.334 508.458C598.945 509.202 601.561 509.952 604.18 510.703L604.456 509.742C601.837 508.99 599.22 508.24 596.608 507.496L596.334 508.458ZM612.023 512.955C614.638 513.705 617.254 514.454 619.872 515.198L620.145 514.236C617.529 513.492 614.913 512.744 612.299 511.994L612.023 512.955ZM627.728 517.416C630.352 518.149 632.975 518.876 635.597 519.591L635.86 518.626C633.24 517.911 630.619 517.186 627.998 516.453L627.728 517.416ZM643.482 521.707C646.121 522.403 648.757 523.084 651.39 523.748L651.634 522.778C649.005 522.115 646.372 521.435 643.737 520.74L643.482 521.707ZM659.324 525.694C661.983 526.327 664.638 526.938 667.286 527.525L667.503 526.549C664.859 525.963 662.21 525.353 659.556 524.721L659.324 525.694ZM675.278 529.219C677.959 529.761 680.633 530.274 683.299 530.754L683.476 529.77C680.818 529.291 678.151 528.78 675.476 528.239L675.278 529.219ZM691.364 532.105C694.073 532.524 696.773 532.904 699.462 533.242L699.586 532.25C696.908 531.913 694.217 531.534 691.516 531.117L691.364 532.105ZM707.587 534.135C710.318 534.389 713.035 534.595 715.737 534.749L715.794 533.75C713.104 533.598 710.399 533.393 707.68 533.139L707.587 534.135ZM723.919 535.048C725.285 535.069 726.646 535.075 728.003 535.066L727.997 534.066C726.647 534.075 725.293 534.069 723.934 534.048L723.919 535.048ZM728.003 535.066C729.316 535.058 730.604 535.03 731.87 534.984L731.834 533.984C730.578 534.03 729.299 534.058 727.997 534.066L728.003 535.066ZM739.48 534.466C742.113 534.2 744.642 533.849 747.076 533.423L746.904 532.438C744.494 532.86 741.989 533.207 739.379 533.471L739.48 534.466ZM754.56 531.808C757.107 531.151 759.545 530.408 761.891 529.59L761.562 528.646C759.242 529.454 756.83 530.19 754.31 530.84L754.56 531.808ZM769.003 526.777C771.385 525.721 773.672 524.591 775.885 523.403L775.412 522.522C773.219 523.699 770.954 524.818 768.598 525.862L769.003 526.777ZM782.505 519.569C784.689 518.216 786.814 516.817 788.903 515.392L788.339 514.566C786.26 515.985 784.147 517.375 781.978 518.719L782.505 519.569ZM795.149 511.008C797.229 509.52 799.263 508.045 801.339 506.56L800.757 505.747C798.699 507.22 796.623 508.723 794.567 510.195L795.149 511.008ZM807.57 502.195C809.652 500.779 811.767 499.393 813.939 498.055L813.414 497.204C811.227 498.551 809.099 499.946 807.008 501.368L807.57 502.195ZM820.516 494.273C822.714 493.104 824.983 491.995 827.345 490.963L826.944 490.046C824.557 491.09 822.265 492.21 820.046 493.39L820.516 494.273ZM834.395 488.22C836.72 487.426 839.137 486.707 841.661 486.075L841.418 485.105C838.866 485.744 836.422 486.471 834.072 487.273L834.395 488.22ZM849.079 484.534C851.492 484.132 853.999 483.805 856.612 483.563L856.52 482.568C853.883 482.812 851.352 483.141 848.914 483.548L849.079 484.534ZM864.161 483.115C865.417 483.08 866.696 483.064 867.999 483.066L868.001 482.066C866.688 482.064 865.399 482.08 864.133 482.115L864.161 483.115ZM867.999 483.066C869.363 483.069 870.727 483.099 872.089 483.154L872.13 482.155C870.755 482.099 869.378 482.069 868.001 482.066L867.999 483.066ZM880.247 483.785C882.95 484.089 885.65 484.486 888.349 484.965L888.523 483.98C885.805 483.498 883.084 483.098 880.359 482.791L880.247 483.785ZM896.37 486.623C899.016 487.244 901.66 487.935 904.303 488.688L904.576 487.726C901.92 486.97 899.261 486.274 896.599 485.649L896.37 486.623ZM912.143 491.092C914.729 491.939 917.313 492.835 919.896 493.773L920.238 492.833C917.645 491.892 915.051 490.992 912.455 490.142L912.143 491.092ZM927.577 496.676C930.115 497.67 932.653 498.696 935.191 499.746L935.573 498.822C933.03 497.77 930.487 496.742 927.942 495.745L927.577 496.676ZM942.761 502.94C945.273 504.018 947.786 505.111 950.298 506.211L950.699 505.295C948.185 504.194 945.671 503.1 943.155 502.021L942.761 502.94ZM957.824 509.519C960.333 510.624 962.843 511.728 965.353 512.823L965.753 511.907C963.244 510.812 960.736 509.708 958.227 508.604L957.824 509.519ZM972.906 516.083C975.435 517.16 977.965 518.221 980.496 519.256L980.874 518.33C978.348 517.297 975.823 516.239 973.298 515.163L972.906 516.083ZM988.147 522.299C990.718 523.29 993.291 524.247 995.865 525.162L996.2 524.219C993.635 523.308 991.07 522.354 988.506 521.366L988.147 522.299ZM1003.67 527.793C1006.3 528.629 1008.94 529.413 1011.57 530.133L1011.84 529.169C1009.22 528.452 1006.59 527.673 1003.98 526.84L1003.67 527.793ZM1019.57 532.119C1022.27 532.717 1024.97 533.241 1027.67 533.68L1027.83 532.693C1025.15 532.257 1022.47 531.737 1019.79 531.143L1019.57 532.119ZM1035.86 534.743C1037.23 534.875 1038.6 534.983 1039.97 535.065L1040.03 534.067C1038.67 533.985 1037.31 533.879 1035.95 533.748L1035.86 534.743ZM1039.97 535.065C1041.33 535.148 1042.67 535.198 1043.97 535.218L1043.98 534.218C1042.7 534.198 1041.38 534.148 1040.03 534.067L1039.97 535.065ZM1051.85 534.958C1054.61 534.725 1057.21 534.347 1059.7 533.845L1059.5 532.865C1057.05 533.359 1054.48 533.732 1051.77 533.961L1051.85 534.958ZM1067.35 531.812C1069.92 530.96 1072.36 529.976 1074.71 528.892L1074.29 527.985C1071.97 529.054 1069.57 530.024 1067.04 530.862L1067.35 531.812ZM1081.72 525.242C1084.01 523.924 1086.23 522.532 1088.44 521.103L1087.89 520.265C1085.7 521.688 1083.49 523.069 1081.22 524.375L1081.72 525.242ZM1094.99 516.747C1097.16 515.299 1099.33 513.851 1101.56 512.435L1101.02 511.591C1098.78 513.014 1096.6 514.468 1094.44 515.916L1094.99 516.747ZM1108.28 508.41C1110.51 507.166 1112.82 505.981 1115.25 504.882L1114.84 503.971C1112.38 505.083 1110.04 506.281 1107.79 507.537L1108.28 508.41ZM1122.52 502.005C1124.9 501.195 1127.4 500.476 1130.03 499.867L1129.81 498.892C1127.14 499.509 1124.61 500.238 1122.19 501.059L1122.52 502.005ZM1137.71 498.479C1140.18 498.15 1142.77 497.914 1145.49 497.784L1145.45 496.786C1142.7 496.916 1140.08 497.155 1137.58 497.488L1137.71 498.479ZM1153.35 497.707C1155.85 497.772 1158.46 497.92 1161.17 498.16L1161.26 497.164C1158.53 496.922 1155.9 496.772 1153.37 496.707L1153.35 497.707ZM1168.95 499.059C1171.44 499.413 1174.02 499.837 1176.69 500.338L1176.88 499.356C1174.19 498.852 1171.6 498.425 1169.09 498.069L1168.95 499.059ZM1184.4 501.941C1186.85 502.499 1189.37 503.118 1191.97 503.799L1192.23 502.832C1189.62 502.148 1187.08 501.527 1184.62 500.966L1184.4 501.941ZM1199.5 505.89C1200.77 506.26 1202.05 506.645 1203.35 507.044L1203.65 506.088C1202.34 505.688 1201.05 505.302 1199.78 504.93L1199.5 505.89ZM1203.35 507.044C1204.63 507.436 1205.97 507.724 1207.38 507.911L1207.51 506.92C1206.15 506.739 1204.86 506.462 1203.65 506.088L1203.35 507.044ZM1215.53 507.974C1218.09 507.717 1220.78 507.22 1223.56 506.498L1223.31 505.53C1220.57 506.241 1217.93 506.728 1215.43 506.979L1215.53 507.974ZM1231.28 504.005C1233.73 503.07 1236.23 501.985 1238.75 500.757L1238.32 499.857C1235.81 501.074 1233.34 502.147 1230.93 503.071L1231.28 504.005ZM1245.93 496.931C1248.21 495.609 1250.51 494.179 1252.8 492.646L1252.25 491.814C1249.97 493.336 1247.69 494.754 1245.43 496.066L1245.93 496.931ZM1259.41 487.949C1261.53 486.345 1263.65 484.656 1265.74 482.887L1265.1 482.123C1263.02 483.881 1260.92 485.558 1258.81 487.15L1259.41 487.949ZM1271.8 477.494C1273.75 475.664 1275.68 473.763 1277.57 471.795L1276.85 471.102C1274.97 473.057 1273.06 474.946 1271.12 476.765L1271.8 477.494ZM1283.04 465.808C1284.8 463.779 1286.52 461.691 1288.19 459.546L1287.4 458.931C1285.74 461.062 1284.03 463.137 1282.28 465.152L1283.04 465.808ZM1293.01 453.023C1294.55 450.815 1296.04 448.557 1297.47 446.249L1296.62 445.722C1295.2 448.014 1293.72 450.258 1292.19 452.45L1293.01 453.023ZM1301.55 439.237C1302.84 436.869 1304.06 434.455 1305.21 432L1304.31 431.575C1303.16 434.012 1301.95 436.408 1300.67 438.759L1301.55 439.237ZM1308.43 424.554C1309.43 422.048 1310.34 419.503 1311.18 416.921L1310.22 416.614C1309.4 419.174 1308.49 421.699 1307.5 424.186L1308.43 424.554ZM1313.41 409.123C1314.06 406.511 1314.63 403.865 1315.11 401.19L1314.12 401.016C1313.65 403.668 1313.09 406.29 1312.44 408.881L1313.41 409.123ZM1316.23 393.157C1316.51 390.485 1316.69 387.786 1316.78 385.063L1315.78 385.033C1315.7 387.731 1315.51 390.405 1315.24 393.054L1316.23 393.157ZM1316.72 376.949C1316.6 374.272 1316.38 371.574 1316.05 368.858L1315.06 368.977C1315.38 371.668 1315.6 374.341 1315.72 376.994L1316.72 376.949ZM1314.79 360.829C1314.28 358.207 1313.66 355.57 1312.95 352.922L1311.98 353.183C1312.69 355.809 1313.3 358.422 1313.81 361.02L1314.79 360.829ZM1310.56 345.193C1309.69 342.683 1308.72 340.163 1307.66 337.636L1306.74 338.025C1307.8 340.532 1308.75 343.031 1309.62 345.521L1310.56 345.193ZM1304.26 330.258C1303.07 327.869 1301.79 325.474 1300.41 323.076L1299.54 323.574C1300.91 325.956 1302.18 328.333 1303.37 330.704L1304.26 330.258ZM1296.21 316.212C1295.46 315.07 1294.7 313.927 1293.91 312.783L1293.09 313.35C1293.87 314.486 1294.63 315.622 1295.37 316.757L1296.21 316.212ZM1293.91 312.783C1293.14 311.66 1292.46 310.475 1291.88 309.231L1290.97 309.657C1291.58 310.948 1292.28 312.18 1293.09 313.35L1293.91 312.783ZM1289.48 301.41C1289.04 298.829 1288.85 296.085 1288.89 293.199L1287.89 293.187C1287.85 296.123 1288.04 298.929 1288.5 301.58L1289.48 301.41ZM1289.53 284.907C1289.89 282.273 1290.39 279.554 1291.01 276.765L1290.04 276.547C1289.41 279.36 1288.91 282.106 1288.54 284.772L1289.53 284.907ZM1293.08 268.693C1293.83 266.082 1294.66 263.424 1295.57 260.73L1294.62 260.413C1293.71 263.119 1292.87 265.79 1292.12 268.418L1293.08 268.693ZM1298.34 252.885C1299.3 250.312 1300.3 247.717 1301.35 245.106L1300.42 244.735C1299.37 247.352 1298.36 249.955 1297.41 252.536L1298.34 252.885ZM1304.52 237.385C1305.59 234.831 1306.69 232.27 1307.8 229.709L1306.89 229.311C1305.77 231.874 1304.67 234.439 1303.59 236.997L1304.52 237.385ZM1311.16 222.068C1312.3 219.516 1313.44 216.971 1314.57 214.441L1313.66 214.033C1312.52 216.563 1311.38 219.109 1310.25 221.662L1311.16 222.068ZM1317.98 206.811C1319.13 204.235 1320.26 201.683 1321.36 199.163L1320.44 198.763C1319.34 201.28 1318.21 203.829 1317.07 206.404L1317.98 206.811ZM1324.66 191.487C1325.77 188.866 1326.82 186.291 1327.82 183.771L1326.89 183.403C1325.9 185.914 1324.84 188.483 1323.74 191.098L1324.66 191.487ZM1330.79 175.911C1331.77 173.173 1332.65 170.52 1333.41 167.968L1332.46 167.682C1331.7 170.214 1330.83 172.849 1329.85 175.574L1330.79 175.911ZM1335.49 159.81C1336.09 156.824 1336.45 154.027 1336.53 151.453L1335.53 151.423C1335.46 153.926 1335.1 156.665 1334.51 159.611L1335.49 159.81ZM1335.43 143.048C1334.93 141.652 1334.26 140.385 1333.4 139.262L1332.6 139.871C1333.4 140.903 1334.02 142.076 1334.48 143.383L1335.43 143.048ZM1333.4 139.262C1332.63 138.272 1331.72 137.319 1330.66 136.404L1330 137.161C1331.02 138.039 1331.89 138.943 1332.6 139.871L1333.4 139.262ZM1324.09 132.061C1321.93 130.928 1319.52 129.874 1316.9 128.904L1316.56 129.842C1319.14 130.799 1321.51 131.837 1323.62 132.946L1324.09 132.061ZM1309.48 126.522C1307.05 125.85 1304.51 125.238 1301.87 124.69L1301.67 125.669C1304.29 126.213 1306.81 126.82 1309.21 127.486L1309.48 126.522ZM1294.19 123.31C1291.66 122.925 1289.08 122.595 1286.46 122.322L1286.35 123.317C1288.96 123.588 1291.53 123.916 1294.04 124.299L1294.19 123.31ZM1278.68 121.688C1276.1 121.535 1273.5 121.437 1270.88 121.396L1270.87 122.396C1273.47 122.437 1276.06 122.535 1278.62 122.687L1278.68 121.688ZM1263.08 121.445C1260.48 121.52 1257.87 121.653 1255.29 121.847L1255.37 122.845C1257.93 122.651 1260.52 122.519 1263.11 122.445L1263.08 121.445ZM1247.52 122.629C1244.91 122.96 1242.34 123.359 1239.81 123.829L1239.99 124.812C1242.5 124.346 1245.05 123.95 1247.65 123.621L1247.52 122.629ZM1232.2 125.505C1229.61 126.17 1227.1 126.921 1224.69 127.759L1225.02 128.704C1227.4 127.875 1229.89 127.132 1232.45 126.474L1232.2 125.505ZM1217.44 130.702C1215 131.854 1212.71 133.121 1210.59 134.51L1211.14 135.346C1213.21 133.986 1215.46 132.74 1217.87 131.606L1217.44 130.702ZM1204.44 139.396C1202.51 141.273 1200.85 143.314 1199.49 145.527L1200.35 146.048C1201.65 143.914 1203.26 141.938 1205.14 140.113L1204.44 139.396ZM1196.39 152.768C1195.74 155.223 1195.42 157.835 1195.46 160.608L1196.46 160.593C1196.42 157.908 1196.73 155.387 1197.36 153.024L1196.39 152.768ZM1196.45 168.372C1196.74 169.627 1197.1 170.91 1197.52 172.221L1198.48 171.912C1198.06 170.627 1197.71 169.372 1197.42 168.146L1196.45 168.372ZM1197.52 172.221C1197.98 173.621 1198.47 174.965 1198.99 176.255L1199.91 175.881C1199.4 174.613 1198.92 173.291 1198.48 171.912L1197.52 172.221ZM1202.79 183.872C1204.36 186.43 1206.09 188.681 1207.95 190.639L1208.67 189.949C1206.86 188.045 1205.17 185.851 1203.64 183.349L1202.79 183.872ZM1214.56 196.046C1217.03 197.584 1219.64 198.745 1222.34 199.55L1222.63 198.592C1220.01 197.812 1217.48 196.687 1215.08 195.197L1214.56 196.046ZM1230.77 200.923C1233.57 201.033 1236.42 200.824 1239.27 200.318L1239.1 199.333C1236.31 199.828 1233.53 200.031 1230.81 199.924L1230.77 200.923ZM1247.49 198.066C1250.09 197.1 1252.67 195.902 1255.2 194.49L1254.72 193.617C1252.23 195.005 1249.69 196.181 1247.14 197.128L1247.49 198.066ZM1262.32 189.841C1264.55 188.162 1266.71 186.312 1268.77 184.304L1268.08 183.587C1266.04 185.567 1263.91 187.389 1261.72 189.042L1262.32 189.841ZM1274.49 178.027C1276.25 175.852 1277.9 173.548 1279.43 171.124L1278.58 170.591C1277.08 172.981 1275.45 175.254 1273.71 177.398L1274.49 178.027ZM1283.54 163.688C1284.75 161.165 1285.82 158.543 1286.75 155.832L1285.81 155.508C1284.89 158.182 1283.83 160.768 1282.64 163.256L1283.54 163.688ZM1289.03 147.656C1289.62 144.928 1290.07 142.129 1290.35 139.265L1289.35 139.167C1289.08 141.992 1288.64 144.754 1288.06 147.444L1289.03 147.656ZM1290.69 130.789C1290.67 129.381 1290.6 127.962 1290.5 126.53L1289.5 126.603C1289.6 128.016 1289.67 129.417 1289.69 130.805L1290.69 130.789ZM1290.5 126.53C1290.41 125.265 1290.36 123.996 1290.35 122.722L1289.35 122.729C1289.36 124.024 1289.41 125.316 1289.5 126.603L1290.5 126.53ZM1290.75 115.099C1291.03 112.597 1291.45 110.084 1292 107.568L1291.02 107.356C1290.47 109.903 1290.05 112.449 1289.76 114.988L1290.75 115.099ZM1293.96 100.169C1294.71 97.7568 1295.56 95.3469 1296.51 92.9446L1295.58 92.5782C1294.62 95.0018 1293.76 97.435 1293 99.8723L1293.96 100.169ZM1299.54 85.914C1300.62 83.6165 1301.77 81.331 1302.99 79.0624L1302.11 78.5896C1300.88 80.8731 1299.72 83.1747 1298.64 85.4896L1299.54 85.914ZM1306.78 72.3881C1308.09 70.1986 1309.45 68.0302 1310.86 65.8871L1310.02 65.3385C1308.61 67.4923 1307.24 69.6724 1305.92 71.8743L1306.78 72.3881ZM1315.19 59.546C1316.68 57.4508 1318.2 55.3859 1319.74 53.3558L1318.94 52.7509C1317.39 54.7891 1315.87 56.8628 1314.38 58.9673L1315.19 59.546ZM1324.47 47.3119C1326.1 45.297 1327.74 43.324 1329.38 41.3979L1328.62 40.7492C1326.97 42.6817 1325.33 44.6616 1323.7 46.6839L1324.47 47.3119ZM1334.45 35.6054C1336.19 33.6585 1337.93 31.771 1339.64 29.9489L1338.91 29.2646C1337.19 31.0919 1335.45 32.9851 1333.7 34.938L1334.45 35.6054ZM1344.96 24.3957C1346.83 22.4917 1348.65 20.6805 1350.4 18.9709L1349.7 18.2558C1347.94 19.9701 1346.12 21.7863 1344.25 23.6955L1344.96 24.3957ZM1355.96 13.6405C1358.02 11.7085 1359.93 9.96875 1361.63 8.44132L1360.96 7.69708C1359.26 9.22904 1357.35 10.9737 1355.28 12.911L1355.96 13.6405ZM1367.42 3.37251C1368.35 2.5836 1369.07 1.97877 1369.56 1.57148C1369.81 1.36784 1370 1.21358 1370.12 1.1104C1370.19 1.05881 1370.23 1.01998 1370.27 0.99414C1370.28 0.981217 1370.29 0.971539 1370.3 0.965133C1370.31 0.961929 1370.31 0.959544 1370.31 0.957979C1370.31 0.957197 1370.31 0.95662 1370.31 0.956248C1370.31 0.956063 1370.31 0.955928 1370.31 0.955846C1370.31 0.955804 1370.31 0.955776 1370.31 0.95576C1370.31 0.955752 1370.31 0.95575 1370.31 0.955746C1370.31 0.955747 1370.31 0.955752 1370 0.566406C1369.69 0.177061 1369.69 0.177072 1369.69 0.177086C1369.69 0.177095 1369.69 0.177112 1369.69 0.17713C1369.69 0.177166 1369.69 0.177214 1369.69 0.177276C1369.69 0.177399 1369.69 0.177574 1369.69 0.1778C1369.68 0.178253 1369.68 0.178911 1369.68 0.179774C1369.68 0.181502 1369.68 0.18405 1369.67 0.187418C1369.66 0.194152 1369.65 0.204159 1369.64 0.217413C1369.6 0.243922 1369.55 0.283419 1369.49 0.335693C1369.36 0.440241 1369.17 0.5959 1368.92 0.800988C1368.43 1.21116 1367.7 1.81906 1366.77 2.61122L1367.42 3.37251Z" fill="#F78383"/>
</svg>
