<svg width="25" height="25" viewBox="0 0 25 25" fill="none" xmlns="http://www.w3.org/2000/svg">
<g clip-path="url(#clip0_991_3079)">
<path d="M17.9218 23.4173H7.96623C6.45745 23.4173 5.01045 22.818 3.94358 21.7511C2.87671 20.6842 2.27734 19.2372 2.27734 17.7284V7.77287C2.27734 6.26409 2.87671 4.81709 3.94358 3.75022C5.01045 2.68335 6.45745 2.08398 7.96623 2.08398H17.9218C19.4306 2.08398 20.8776 2.68335 21.9444 3.75022C23.0113 4.81709 23.6107 6.26409 23.6107 7.77287V17.7284C23.6107 19.2372 23.0113 20.6842 21.9444 21.7511C20.8776 22.818 19.4306 23.4173 17.9218 23.4173Z" stroke="white" stroke-width="1.2" stroke-miterlimit="10"/>
<path d="M12.9426 17.729C15.6918 17.729 17.9204 15.5004 17.9204 12.7512C17.9204 10.0021 15.6918 7.77344 12.9426 7.77344C10.1935 7.77344 7.96484 10.0021 7.96484 12.7512C7.96484 15.5004 10.1935 17.729 12.9426 17.729Z" stroke="white" stroke-width="1.2" stroke-miterlimit="10"/>
<path d="M19.3439 7.06089C19.7367 7.06089 20.055 6.74252 20.055 6.34978C20.055 5.95705 19.7367 5.63867 19.3439 5.63867C18.9512 5.63867 18.6328 5.95705 18.6328 6.34978C18.6328 6.74252 18.9512 7.06089 19.3439 7.06089Z" stroke="white" stroke-miterlimit="10"/>
</g>
<defs>
<clipPath id="clip0_991_3079">
<rect width="24" height="24" fill="white" transform="translate(0.945312 0.75)"/>
</clipPath>
</defs>
</svg>
