<svg width="40" height="26" viewBox="0 0 40 26" fill="none" xmlns="http://www.w3.org/2000/svg">
<rect x="0.75" y="0.75" width="38.5" height="24.5" rx="12.25" stroke="#F2D125" stroke-width="1.5"/>
<path d="M24.9294 8.75623C25.109 8.20344 25.891 8.20344 26.0706 8.75623L26.9369 11.4223C27.0172 11.6695 27.2476 11.8369 27.5075 11.8369H30.3108C30.892 11.8369 31.1337 12.5806 30.6635 12.9223L28.3956 14.57C28.1853 14.7228 28.0973 14.9936 28.1776 15.2408L29.0439 17.9069C29.2235 18.4597 28.5908 18.9193 28.1206 18.5777L25.8527 16.93C25.6424 16.7772 25.3576 16.7772 25.1473 16.93L22.8794 18.5777C22.4092 18.9193 21.7765 18.4597 21.9561 17.9069L22.8224 15.2408C22.9027 14.9936 22.8147 14.7228 22.6044 14.57L20.3365 12.9223C19.8663 12.5806 20.108 11.8369 20.6892 11.8369H23.4925C23.7524 11.8369 23.9828 11.6695 24.0631 11.4223L24.9294 8.75623Z" fill="#F2D125"/>
<path d="M12.738 10.918C13.554 10.918 14.274 11.068 14.898 11.368C15.522 11.668 16.008 12.106 16.356 12.682C16.716 13.246 16.896 13.942 16.896 14.77C16.896 15.682 16.704 16.468 16.32 17.128C15.936 17.788 15.372 18.298 14.628 18.658C13.884 19.006 12.972 19.18 11.892 19.18C11.22 19.18 10.59 19.12 10.002 19C9.414 18.88 8.904 18.706 8.472 18.478V16.462C8.916 16.702 9.45 16.9 10.074 17.056C10.698 17.212 11.286 17.29 11.838 17.29C12.414 17.29 12.906 17.212 13.314 17.056C13.722 16.888 14.034 16.636 14.25 16.3C14.466 15.952 14.574 15.514 14.574 14.986C14.574 14.266 14.346 13.72 13.89 13.348C13.434 12.976 12.726 12.79 11.766 12.79C11.43 12.79 11.064 12.82 10.668 12.88C10.284 12.94 9.966 13 9.714 13.06L8.742 12.52L9.228 6.148H15.996V8.128H11.226L10.956 11.098C11.16 11.062 11.4 11.026 11.676 10.99C11.964 10.942 12.318 10.918 12.738 10.918Z" fill="#F2D125"/>
</svg>
