<svg width="17" height="17" viewBox="0 0 17 17" fill="none" xmlns="http://www.w3.org/2000/svg">
    <path
        d="M7.92937 1.32264C8.10898 0.76985 8.89102 0.76985 9.07063 1.32264L10.6104 6.06165C10.6908 6.30886 10.9211 6.47624 11.1811 6.47624H16.164C16.7452 6.47624 16.9869 7.22001 16.5166 7.56165L12.4854 10.4905C12.2751 10.6433 12.1871 10.9141 12.2674 11.1613L13.8072 15.9003C13.9868 16.4531 13.3541 16.9128 12.8839 16.5712L8.85267 13.6423C8.64238 13.4895 8.35762 13.4895 8.14733 13.6423L4.11609 16.5712C3.64586 16.9128 3.01317 16.4531 3.19278 15.9003L4.73258 11.1613C4.8129 10.9141 4.72491 10.6433 4.51462 10.4905L0.483374 7.56165C0.0131456 7.22001 0.254811 6.47624 0.836045 6.47624H5.81893C6.07887 6.47624 6.30924 6.30886 6.38957 6.06165L7.92937 1.32264Z"
        fill="#EECD21" />
</svg>
