<svg width="27" height="27" viewBox="0 0 27 27" fill="none" xmlns="http://www.w3.org/2000/svg">
<path d="M24.7196 3.74451C24.2436 3.34983 23.5895 3.24827 23.0163 3.48002L3.60622 11.3162C2.7524 11.6676 2.34516 12.6447 2.69659 13.4985C2.87836 13.94 3.24018 14.2827 3.69086 14.4403L7.8782 15.896L10.1475 23.399C10.152 23.4142 10.1661 23.4236 10.1719 23.4382C10.1954 23.4981 10.2297 23.5532 10.273 23.6006C10.2892 23.6197 10.3068 23.6377 10.3255 23.6542C10.3821 23.7011 10.4477 23.7359 10.5184 23.7561C10.5291 23.7593 10.5363 23.7689 10.5473 23.7714L10.5537 23.7711L10.5568 23.7724C10.593 23.7805 10.6299 23.7844 10.6669 23.7841C10.7152 23.7823 10.7631 23.774 10.8092 23.7593C10.8181 23.7568 10.8271 23.7575 10.8358 23.7546C10.9144 23.7269 10.9854 23.6813 11.0433 23.6214C11.05 23.6147 11.0603 23.6135 11.0668 23.6063L14.3316 20.004L19.0944 23.692C19.3839 23.9183 19.7406 24.0412 20.1079 24.0411C20.9025 24.041 21.5883 23.4845 21.752 22.7071L25.2866 5.3547C25.4091 4.75445 25.1911 4.13555 24.7196 3.74451ZM11.3324 17.319L10.5662 21.0421L8.96847 15.7578L16.8929 11.6314L11.4794 17.045C11.4046 17.1199 11.3535 17.2152 11.3324 17.319ZM20.6909 22.4891C20.6494 22.6886 20.5071 22.8521 20.3154 22.9208C20.128 22.9928 19.9164 22.9607 19.7589 22.8361L14.5982 18.8403C14.3748 18.6673 14.0559 18.6954 13.8662 18.9048L11.5959 21.4097L12.3607 17.6967L20.1482 9.90808C20.3599 9.69682 20.3602 9.35405 20.1489 9.14246C19.9819 8.97498 19.7254 8.93543 19.5156 9.0448L8.28861 14.8912L4.04527 13.4162C3.81398 13.3401 3.65667 13.1254 3.65383 12.882C3.64266 12.6368 3.78779 12.4114 4.01565 12.3202L23.4225 4.48507C23.6253 4.39904 23.8592 4.43508 24.0266 4.57817C24.1933 4.71266 24.2698 4.9296 24.2245 5.13888L20.6909 22.4891Z" fill="#000000"/>
</svg>
